<svg width="49" height="18" viewBox="0 0 49 18" fill="none" xmlns="http://www.w3.org/2000/svg">
<path fill-rule="evenodd" clip-rule="evenodd" d="M26.6622 6.64286H28.4732L27.4967 13.7143H29.0946L30.0711 6.64286H31.9887L32.184 5.25H30.2842L30.5505 3.30357C30.5979 3.00595 30.6541 2.74107 30.7192 2.50893C30.7843 2.27678 30.876 2.07738 30.9944 1.91071C31.1128 1.74405 31.2666 1.61607 31.456 1.52679C31.6454 1.4375 31.8881 1.39286 32.184 1.39286C32.3497 1.39286 32.5036 1.40476 32.6456 1.42857C32.7877 1.45238 32.9297 1.49405 33.0717 1.55357L33.4446 0.125C33.2315 0.0654759 33.0274 0.029762 32.8321 0.0178571C32.6367 0.00595232 32.4503 0 32.2728 0C31.2193 0 30.441 0.276783 29.938 0.830357C29.4349 1.38393 29.1005 2.22618 28.9348 3.35714L28.6685 5.25H26.8575L26.6622 6.64286ZM14.3737 0.214286H12.7757L10.8937 13.7143H12.4917L14.3737 0.214286ZM9.65875 1.07143H1.75775L0 13.7143H1.70449L2.46795 8.25H8.23834L8.45141 6.64286H2.68101L3.23142 2.67857H9.42793L9.65875 1.07143ZM23.4742 13.7143H21.8762L22.0537 12.4107H22.0182C21.746 12.8631 21.3435 13.2292 20.8109 13.5089C20.2782 13.7887 19.6864 13.9286 19.0354 13.9286C18.6211 13.9286 18.2394 13.8661 17.8902 13.7411C17.541 13.6161 17.2451 13.4226 17.0024 13.1607C16.7598 12.8988 16.5852 12.5625 16.4787 12.1518C16.3721 11.7411 16.3544 11.256 16.4254 10.6964L17.1889 5.25H18.7868L18.0944 10.25C18.0352 10.6429 18.0381 10.9792 18.1032 11.2589C18.1684 11.5387 18.2778 11.7649 18.4317 11.9375C18.5856 12.1101 18.775 12.2351 18.9999 12.3125C19.2248 12.3899 19.4615 12.4286 19.7101 12.4286C20.3729 12.4286 20.9589 12.2054 21.4678 11.7589C21.9768 11.3125 22.3023 10.5952 22.4444 9.60714L23.048 5.25H24.646L23.4742 13.7143ZM35.0524 6.64286H33.2414L33.4367 5.25H35.2477L35.5141 3.35714C35.6798 2.22618 36.0141 1.38393 36.5172 0.830357C37.0203 0.276783 37.7985 0 38.852 0C39.0296 0 39.216 0.00595232 39.4113 0.0178571C39.6066 0.029762 39.8108 0.0654759 40.0238 0.125L39.651 1.55357C39.5089 1.49405 39.3669 1.45238 39.2249 1.42857C39.0828 1.40476 38.9289 1.39286 38.7632 1.39286C38.4673 1.39286 38.2247 1.4375 38.0353 1.52679C37.8459 1.61607 37.692 1.74405 37.5736 1.91071C37.4553 2.07738 37.3635 2.27678 37.2984 2.50893C37.2333 2.74107 37.1771 3.00595 37.1298 3.30357L36.8634 5.25H38.7632L38.5679 6.64286H36.6504L35.6738 13.7143H34.0759L35.0524 6.64286ZM42.3596 5.25H40.5131L42.8212 13.7679L42.1288 15.1071C42.0223 15.3214 41.9128 15.5119 41.8003 15.6786C41.6879 15.8452 41.5636 15.9911 41.4275 16.1161C41.2913 16.2411 41.1316 16.3363 40.9481 16.4018C40.7646 16.4673 40.5486 16.5 40.3 16.5C39.9686 16.5 39.6549 16.4345 39.359 16.3036L38.9861 17.7679C39.1874 17.8631 39.4063 17.9256 39.6431 17.9554C39.8798 17.9851 40.1166 18 40.3533 18C40.7912 18 41.17 17.9405 41.4896 17.8214C41.8092 17.7024 42.0903 17.5357 42.333 17.3214C42.5756 17.1071 42.7946 16.8482 42.9899 16.5446C43.1852 16.2411 43.3776 15.9048 43.567 15.5357L49 5.25H47.2778L43.9753 11.8571H43.9398L42.3596 5.25Z" fill="#2557AB"/>
</svg>
