<svg width="11" height="19" viewBox="0 0 11 19" fill="none" xmlns="http://www.w3.org/2000/svg">
<path d="M4.75961 6.15402C4.7601 6.76546 4.18247 7.42121 3.43217 7.42027V17.7609C3.4333 19.2267 1.3625 19.2267 1.3604 17.7609V7.42027C0.633036 7.42121 -0.00193392 6.87857 4.42625e-06 6.06618V0.374584C-0.00193392 -0.118594 0.739161 -0.137785 0.74013 0.394554V4.60037H1.3604V0.35867C1.35943 -0.0976877 2.07274 -0.126863 2.07177 0.374584V4.60037H2.71272V0.36257C2.71369 -0.112822 3.40633 -0.131856 3.40729 0.382541V4.60037H4.03597V0.36257C4.03693 -0.107829 4.76042 -0.126863 4.75961 0.382541V6.15402Z" fill="#B01212"/>
<path d="M11 1.70888V17.92C11 19.3707 8.65353 19.3493 8.65243 17.92V11.4864H7.40385V1.70888C7.40403 -0.569628 11 -0.569628 11 1.70888Z" fill="#B01212"/>
</svg>
