<svg width="12" height="15" viewBox="0 0 12 15" fill="none" xmlns="http://www.w3.org/2000/svg">
<path d="M11.5 10.6851C11.5 10.0294 10.9686 9.4981 10.3133 9.4981H1.68671C1.03137 9.4981 0.5 10.0294 0.5 10.6851V11.3751C0.5 11.7003 0.601382 12.0173 0.790017 12.2821C1.82473 13.7345 3.53795 14.5 5.9975 14.5C8.45652 14.5 10.1711 13.7349 11.2087 12.2828L11.5 10.6851ZM11.5 10.6851V11.374M11.5 10.6851V11.374M11.5 11.374C11.5 11.6998 11.3981 12.0175 11.2087 12.2827L11.5 11.374ZM5.9975 0.5C7.7924 0.5 9.24761 1.95531 9.24761 3.75067C9.24761 5.54605 7.7924 7.00136 5.9975 7.00136C4.20261 7.00136 2.74741 5.54605 2.74741 3.75067C2.74741 1.95531 4.20261 0.5 5.9975 0.5Z" stroke="white"/>
</svg>
