<svg width="100" height="23" viewBox="0 0 100 23" fill="none" xmlns="http://www.w3.org/2000/svg">
<path d="M0.85 22C0.65 22 0.47 21.93 0.31 21.79C0.17 21.63 0.1 21.45 0.1 21.25V1.75C0.1 1.53 0.17 1.35 0.31 1.21C0.47 1.07 0.65 0.999999 0.85 0.999999H8.65C11.59 0.999999 13.87 1.7 15.49 3.1C17.11 4.5 17.96 6.53 18.04 9.19C18.06 9.77 18.07 10.54 18.07 11.5C18.07 12.46 18.06 13.22 18.04 13.78C17.94 16.56 17.11 18.63 15.55 19.99C14.01 21.33 11.76 22 8.8 22H0.85ZM8.65 17.68C9.97 17.68 10.94 17.37 11.56 16.75C12.18 16.11 12.51 15.1 12.55 13.72C12.59 13.14 12.61 12.39 12.61 11.47C12.61 10.55 12.59 9.81 12.55 9.25C12.51 7.91 12.15 6.92 11.47 6.28C10.81 5.64 9.82 5.32 8.5 5.32H5.5V17.68H8.65ZM21.7246 22C21.5246 22 21.3446 21.93 21.1846 21.79C21.0446 21.63 20.9746 21.45 20.9746 21.25V1.75C20.9746 1.53 21.0446 1.35 21.1846 1.21C21.3446 1.07 21.5246 0.999999 21.7246 0.999999H25.7446C25.9646 0.999999 26.1446 1.07 26.2846 1.21C26.4446 1.35 26.5246 1.53 26.5246 1.75V21.25C26.5246 21.47 26.4446 21.65 26.2846 21.79C26.1446 21.93 25.9646 22 25.7446 22H21.7246ZM30.8512 22C30.6512 22 30.4712 21.93 30.3112 21.79C30.1712 21.63 30.1012 21.45 30.1012 21.25V1.75C30.1012 1.53 30.1712 1.35 30.3112 1.21C30.4712 1.07 30.6512 0.999999 30.8512 0.999999H34.0312C34.5312 0.999999 34.8712 1.19 35.0512 1.57L42.3712 13.09V1.75C42.3712 1.53 42.4412 1.35 42.5812 1.21C42.7412 1.07 42.9212 0.999999 43.1212 0.999999H46.7212C46.9412 0.999999 47.1212 1.07 47.2612 1.21C47.4012 1.35 47.4712 1.53 47.4712 1.75V21.22C47.4712 21.44 47.4012 21.63 47.2612 21.79C47.1212 21.93 46.9412 22 46.7212 22H43.5112C43.0712 22 42.7412 21.81 42.5212 21.43L35.2012 10.33V21.25C35.2012 21.45 35.1312 21.63 34.9912 21.79C34.8512 21.93 34.6712 22 34.4512 22H30.8512ZM51.8137 22C51.6137 22 51.4337 21.93 51.2737 21.79C51.1337 21.63 51.0637 21.45 51.0637 21.25V1.75C51.0637 1.53 51.1337 1.35 51.2737 1.21C51.4337 1.07 51.6137 0.999999 51.8137 0.999999H55.8337C56.0537 0.999999 56.2337 1.07 56.3737 1.21C56.5337 1.35 56.6137 1.53 56.6137 1.75V21.25C56.6137 21.47 56.5337 21.65 56.3737 21.79C56.2337 21.93 56.0537 22 55.8337 22H51.8137ZM60.9402 22C60.7402 22 60.5602 21.93 60.4002 21.79C60.2602 21.63 60.1902 21.45 60.1902 21.25V1.75C60.1902 1.53 60.2602 1.35 60.4002 1.21C60.5602 1.07 60.7402 0.999999 60.9402 0.999999H64.1202C64.6202 0.999999 64.9602 1.19 65.1402 1.57L72.4602 13.09V1.75C72.4602 1.53 72.5302 1.35 72.6702 1.21C72.8302 1.07 73.0102 0.999999 73.2102 0.999999H76.8102C77.0302 0.999999 77.2102 1.07 77.3502 1.21C77.4902 1.35 77.5602 1.53 77.5602 1.75V21.22C77.5602 21.44 77.4902 21.63 77.3502 21.79C77.2102 21.93 77.0302 22 76.8102 22H73.6002C73.1602 22 72.8302 21.81 72.6102 21.43L65.2902 10.33V21.25C65.2902 21.45 65.2202 21.63 65.0802 21.79C64.9402 21.93 64.7602 22 64.5402 22H60.9402ZM89.8227 22.3C86.9427 22.3 84.6927 21.6 83.0727 20.2C81.4527 18.78 80.5927 16.77 80.4927 14.17C80.4727 13.59 80.4627 12.67 80.4627 11.41C80.4627 10.15 80.4727 9.23 80.4927 8.65C80.5927 6.11 81.4627 4.15 83.1027 2.77C84.7627 1.39 87.0027 0.699999 89.8227 0.699999C91.7227 0.699999 93.3727 1.01 94.7727 1.63C96.1927 2.25 97.2727 3.04 98.0127 4C98.7727 4.96 99.1727 5.95 99.2127 6.97C99.2127 7.15 99.1427 7.3 99.0027 7.42C98.8827 7.54 98.7327 7.6 98.5527 7.6H94.1727C93.9727 7.6 93.8127 7.57 93.6927 7.51C93.5727 7.45 93.4727 7.34 93.3927 7.18C93.1327 6.6 92.7227 6.1 92.1627 5.68C91.6027 5.24 90.8227 5.02 89.8227 5.02C87.4427 5.02 86.1927 6.28 86.0727 8.8C86.0527 9.36 86.0427 10.23 86.0427 11.41C86.0427 12.57 86.0527 13.44 86.0727 14.02C86.1927 16.66 87.4727 17.98 89.9127 17.98C91.0927 17.98 92.0327 17.68 92.7327 17.08C93.4527 16.46 93.8127 15.52 93.8127 14.26V13.69H90.9927C90.7727 13.69 90.5927 13.62 90.4527 13.48C90.3127 13.32 90.2427 13.13 90.2427 12.91V10.69C90.2427 10.47 90.3127 10.29 90.4527 10.15C90.5927 9.99 90.7727 9.91 90.9927 9.91H98.5527C98.7727 9.91 98.9527 9.99 99.0927 10.15C99.2327 10.29 99.3027 10.47 99.3027 10.69V14.11C99.3027 15.81 98.9127 17.28 98.1327 18.52C97.3527 19.74 96.2427 20.68 94.8027 21.34C93.3827 21.98 91.7227 22.3 89.8227 22.3Z" fill="#D72222"/>
</svg>
