<svg width="576" height="495" viewBox="0 0 576 495" fill="none" xmlns="http://www.w3.org/2000/svg">
<path fill-rule="evenodd" clip-rule="evenodd" d="M459.009 343.693C459.105 343.634 459.703 344.464 460.587 346.098C461.474 347.726 462.579 350.2 463.605 353.391C465.709 359.752 467.029 369.142 466.246 379.382C465.47 389.621 463.219 398.609 461.482 405.006C459.705 411.407 458.398 415.292 458.172 415.226C457.923 415.154 458.806 411.134 460.264 404.671C461.684 398.209 463.711 389.269 464.471 379.24C465.234 369.214 464.148 360.088 462.402 353.779C460.707 347.439 458.729 343.846 459.009 343.693Z" fill="white"/>
<path fill-rule="evenodd" clip-rule="evenodd" d="M465.01 292.449C465.121 292.397 465.845 293.789 467.051 296.354C468.257 298.92 469.95 302.659 471.954 307.325C475.929 316.656 481.279 329.719 485.16 344.883C487.067 352.469 488.367 359.844 489.026 366.616C489.689 373.387 489.757 379.539 489.425 384.674C489.104 389.811 488.487 393.933 487.893 396.736C487.306 399.544 486.841 401.057 486.736 401.032C486.406 400.965 487.859 394.783 488.168 384.612C488.551 374.462 487.284 360.36 483.439 345.366C479.602 330.366 474.471 317.297 470.798 307.85C468.949 303.123 467.453 299.296 466.417 296.652C465.407 293.996 464.897 292.502 465.01 292.449Z" fill="white"/>
<path fill-rule="evenodd" clip-rule="evenodd" d="M242.938 352.594C243.144 352.827 241.124 354.852 238.504 358.612C237.853 359.556 237.147 360.589 236.486 361.769C235.763 362.905 235.134 364.209 234.434 365.556C233.133 368.3 231.898 371.419 230.945 374.815C230.034 378.223 229.503 381.554 229.216 384.607C229.129 386.137 229.002 387.594 229.039 388.959C229.002 390.328 229.078 391.6 229.15 392.763C229.468 397.411 230.155 400.255 229.862 400.338C229.684 400.402 228.554 397.655 227.898 392.898C227.741 391.71 227.591 390.405 227.562 388.992C227.461 387.58 227.534 386.07 227.579 384.48C227.784 381.31 228.287 377.834 229.234 374.297C230.222 370.77 231.553 367.546 232.985 364.748C233.75 363.374 234.451 362.055 235.252 360.917C235.989 359.736 236.779 358.714 237.512 357.795C240.474 354.134 242.821 352.442 242.938 352.594Z" fill="white"/>
<path fill-rule="evenodd" clip-rule="evenodd" d="M247.677 369C247.826 369.251 246.701 370.156 245.231 371.886C244.487 372.741 243.703 373.849 242.932 375.132C242.193 376.438 241.486 377.935 240.93 379.587C240.398 381.246 240.078 382.884 239.895 384.393C239.749 385.903 239.717 387.282 239.802 388.438C239.945 390.752 240.301 392.195 240.035 392.296C239.845 392.381 239.044 391.06 238.554 388.614C238.299 387.395 238.194 385.901 238.26 384.247C238.363 382.598 238.664 380.79 239.246 378.976C239.851 377.171 240.676 375.553 241.561 374.187C242.477 372.84 243.436 371.734 244.351 370.939C246.171 369.329 247.576 368.808 247.677 369Z" fill="white"/>
<path fill-rule="evenodd" clip-rule="evenodd" d="M181.884 216.107C181.976 216.022 182.773 216.847 184.141 218.419C184.835 219.197 185.656 220.177 186.524 221.386C187.402 222.583 188.457 223.913 189.447 225.512C189.957 226.301 190.494 227.127 191.051 227.988C191.603 228.854 192.104 229.803 192.661 230.761C193.802 232.663 194.824 234.81 195.936 237.051C198.036 241.595 200.043 246.753 201.643 252.343C203.19 257.951 204.173 263.429 204.76 268.442C204.984 270.958 205.235 273.346 205.261 275.593C205.289 276.716 205.359 277.798 205.343 278.841C205.321 279.882 205.298 280.881 205.277 281.835C205.272 283.745 205.073 285.462 204.957 286.971C204.852 288.481 204.67 289.771 204.489 290.82C204.154 292.923 203.912 294.07 203.79 294.052C203.477 294.009 204.068 289.35 204.018 281.821C204.002 280.88 203.986 279.896 203.969 278.869C203.948 277.843 203.845 276.777 203.786 275.675C203.698 273.466 203.395 271.123 203.132 268.656C202.464 263.741 201.453 258.379 199.935 252.875C198.364 247.388 196.442 242.308 194.46 237.8C193.406 235.579 192.449 233.44 191.382 231.535C190.86 230.575 190.396 229.623 189.884 228.749C189.366 227.879 188.871 227.042 188.398 226.244C184.548 219.895 181.642 216.324 181.884 216.107Z" fill="white"/>
<path fill-rule="evenodd" clip-rule="evenodd" d="M202.049 224.878C202.2 224.737 204.245 226.748 206.847 230.624C208.156 232.554 209.535 234.986 210.877 237.791C212.181 240.614 213.425 243.82 214.418 247.295C215.381 250.779 215.993 254.183 216.358 257.298C216.68 260.42 216.779 263.249 216.677 265.617C216.497 270.356 215.819 273.214 215.62 273.181C215.333 273.144 215.563 270.251 215.417 265.616C215.359 263.299 215.132 260.548 214.732 257.523C214.287 254.503 213.644 251.211 212.711 247.826C211.746 244.451 210.583 241.32 209.396 238.532C208.169 235.762 206.937 233.324 205.789 231.344C203.514 227.37 201.828 225.073 202.049 224.878Z" fill="white"/>
<path fill-rule="evenodd" clip-rule="evenodd" d="M131.441 378.076L129.891 374.748L86.7372 409.414L105.564 441.479L148.52 403.4L131.441 378.076Z" fill="#FF7B5B"/>
<path fill-rule="evenodd" clip-rule="evenodd" d="M88.5457 410.155L105.085 440.226L106.142 439.73L91.4138 411.613L88.5457 410.155Z" fill="#D7D4D4"/>
<path fill-rule="evenodd" clip-rule="evenodd" d="M130.588 377.417L88.5457 410.154C88.5457 410.154 88.7219 410.857 89.7652 411.291C90.8099 411.724 91.4138 411.614 91.4138 411.614L135.614 379.808C135.614 379.808 133.066 379.186 132.142 378.461C131.217 377.733 130.588 377.417 130.588 377.417Z" fill="#F5F3F3"/>
<path fill-rule="evenodd" clip-rule="evenodd" d="M136.695 378.526L90.6244 410.879L105.587 440.693L107.998 444.822L154.07 408.972C154.07 408.972 149.218 401.358 146.304 396.76C143.391 392.163 137.671 381.32 137.36 380.625C137.048 379.93 136.695 378.526 136.695 378.526Z" fill="#FF7B5B"/>
<path fill-rule="evenodd" clip-rule="evenodd" d="M516.629 155.165L517.93 152.371L554.167 181.481L538.358 208.408L502.286 176.431L516.629 155.165Z" fill="#775298"/>
<path fill-rule="evenodd" clip-rule="evenodd" d="M552.649 182.103L538.762 207.354L537.873 206.938L550.241 183.328L552.649 182.103Z" fill="#D7D4D4"/>
<path fill-rule="evenodd" clip-rule="evenodd" d="M517.345 154.611L552.65 182.102C552.65 182.102 552.501 182.692 551.626 183.056C550.748 183.42 550.24 183.327 550.24 183.327L513.124 156.62C513.124 156.62 515.264 156.098 516.04 155.487C516.816 154.877 517.345 154.611 517.345 154.611Z" fill="#F5F3F3"/>
<path fill-rule="evenodd" clip-rule="evenodd" d="M512.216 155.543L550.904 182.71L538.34 207.747L536.315 211.214L497.625 181.109C497.625 181.109 501.702 174.714 504.147 170.854C506.595 166.994 511.397 157.888 511.658 157.305C511.92 156.723 512.216 155.543 512.216 155.543Z" fill="#775298"/>
<path fill-rule="evenodd" clip-rule="evenodd" d="M79.9208 102.772C79.9208 102.772 77.1848 104.763 78.5522 108.082C79.9208 111.401 85.9189 121.248 94.0219 120.915C94.3537 120.903 83.8141 102.772 83.8141 102.772H79.9208Z" fill="#FF7B5B"/>
<path fill-rule="evenodd" clip-rule="evenodd" d="M67.5253 284.293C67.5253 284.293 57.3928 274.777 54.1487 276.481C50.1854 278.565 27.5005 301.933 28.387 312.941C28.7512 317.45 33.7436 313.587 42.6398 303.885C51.5385 294.185 62.7429 298.342 62.7429 298.342L67.5253 284.293Z" fill="#775298"/>
<path fill-rule="evenodd" clip-rule="evenodd" d="M92.1434 300.343L79.9112 292.628C79.9112 292.628 48.2045 323.88 53.158 328.047C56.9153 331.207 59.1238 328.372 68.0212 318.67C76.9173 308.971 88.1891 314.548 88.1891 314.548L92.1434 300.343Z" fill="#775298"/>
<path fill-rule="evenodd" clip-rule="evenodd" d="M166.865 197.525L169.159 231.771L118.239 217.824L166.865 197.525Z" fill="#F3A683"/>
<path fill-rule="evenodd" clip-rule="evenodd" d="M118.239 219.002C118.239 219.002 162.779 221.954 168.71 219.873C168.71 219.873 177.414 309.776 161.927 319.475C146.437 329.177 111.68 314.972 111.68 314.972L121.065 295.57L141.299 294.185V259.54L139.847 259.886L118.239 219.002Z" fill="#112129"/>
<path fill-rule="evenodd" clip-rule="evenodd" d="M62.4069 280.326C62.4069 280.326 51.2038 285.177 54.8289 296.957C54.8289 296.957 93.0716 328.485 111.68 321.208C122.106 317.133 133.305 286.035 141.14 259.466L168.711 219.873C168.711 219.873 155.707 220.557 151.369 220.539C143.079 220.507 118.24 219.002 118.24 219.002C118.24 219.002 105.265 290.375 100.642 292.106C96.0188 293.837 62.4069 280.326 62.4069 280.326Z" fill="#22343D"/>
<path fill-rule="evenodd" clip-rule="evenodd" d="M128.618 129.486C128.618 129.486 155.312 103.155 159.924 96.2242C164.537 89.2952 174.426 66.0827 186.615 56.382L180.685 43.2162C180.685 43.2162 184.311 41.1382 186.615 46.6801C186.615 46.6801 195.182 28.666 197.16 29.0107C199.139 29.3569 193.207 42.8701 193.207 42.8701C193.207 42.8701 201.448 30.3965 203.753 30.744C206.058 31.0901 197.821 44.7656 197.821 44.7656C197.821 44.7656 207.046 33.5156 208.366 34.9014C209.684 36.2872 201.116 44.7656 201.116 44.7656C201.116 44.7656 210.342 39.1965 211.331 41.0319C212.32 42.8701 202.105 47.7198 202.105 47.7198C202.105 47.7198 201.116 55.6885 194.856 59.1523C194.856 59.1523 182.459 94.3656 171.255 105.798L135.262 145.127L128.618 129.486Z" fill="#FFC6B2"/>
<path fill-rule="evenodd" clip-rule="evenodd" d="M96.7541 143.133C96.7541 143.133 71.4616 170.949 64.8284 175.734C58.1939 180.517 36.0249 190.697 26.6855 203.424L14.2187 197.064C14.2187 197.064 12.2085 200.855 17.4589 203.331C17.4589 203.331 0.243364 212.171 0.555713 214.254C0.86547 216.336 13.7729 210.226 13.7729 210.226C13.7729 210.226 1.83233 218.773 2.14079 221.199C2.44925 223.626 15.5316 215.093 15.5316 215.093C15.5316 215.093 4.74586 224.688 6.05228 226.086C7.35611 227.485 15.5018 218.559 15.5018 218.559C15.5018 218.559 10.118 228.206 11.8573 229.262C13.594 230.318 18.3026 219.624 18.3026 219.624C18.3026 219.624 25.8897 218.662 29.2452 212.111C29.2452 212.111 60.9687 198.84 71.9489 187.168L111.427 157.758L96.7541 143.133Z" fill="#FFC6B2"/>
<path fill-rule="evenodd" clip-rule="evenodd" d="M106.236 132.046L93.4441 145.212L96.6881 160.054C96.6881 160.054 109.291 191.865 111.196 199.625C114.158 211.693 109.367 230.092 109.367 230.092C109.367 230.092 130.733 228.227 150.174 227.535C169.613 226.841 175.973 220.257 175.973 220.257C175.973 220.257 159.118 161.235 147.481 144.737C135.842 128.241 131.609 123.076 131.609 123.076L114.474 127.014L106.236 132.046Z" fill="white"/>
<path fill-rule="evenodd" clip-rule="evenodd" d="M143.779 142.791L157.107 133.837C157.107 133.837 159.143 124.244 143.07 112.929L124.221 125.347L143.779 142.791Z" fill="white"/>
<path fill-rule="evenodd" clip-rule="evenodd" d="M96.1397 144.171C88.8325 145.249 75.4793 164.72 73.9901 164.683C73.9901 164.683 83.3878 180.807 90.8323 181.33C90.8323 181.33 123.593 140.123 96.1397 144.171Z" fill="white"/>
<path fill-rule="evenodd" clip-rule="evenodd" d="M121.934 131.502C121.934 131.502 111.313 123.159 111.681 119.833C111.774 118.995 113.246 117.635 113.629 116.427C115.688 109.932 105.759 93.1944 99.6584 89.6665C94.8591 86.8922 96.9626 86.6469 86.8625 92.9573C76.7623 99.2676 82.5168 110.18 87.0271 115.824C91.2911 121.158 96.1746 123.444 100.568 123.829L106.815 138.418L121.934 131.502Z" fill="#FFC6B2"/>
<path fill-rule="evenodd" clip-rule="evenodd" d="M102.769 143.084C100.76 137.903 104.564 131.378 111.266 128.504C117.97 125.629 125.03 127.498 127.043 132.676C129.05 137.856 122.305 145.642 118.54 147.256C114.775 148.871 104.776 148.262 102.769 143.084Z" fill="#FFC6B2"/>
<path fill-rule="evenodd" clip-rule="evenodd" d="M87.0275 115.824C87.0275 115.824 83.5826 115.624 83.2003 118.037C82.8166 120.451 89.5146 120.451 92.0031 118.64L87.0275 115.824Z" fill="#FFC6B2"/>
<path fill-rule="evenodd" clip-rule="evenodd" d="M88.7501 118.037C88.0956 113.675 83.6748 110.432 83.8951 106.182C86.0141 106.2 87.375 103.44 86.4107 101.082C86.031 100.155 85.3881 99.3619 84.9773 98.4476C84.5677 97.5346 84.4589 96.3382 85.0875 95.8218C85.3856 95.5779 85.7886 95.5356 86.1748 95.4948C89.3165 95.1555 94.699 96.1461 97.5905 95.0192C100.343 93.9468 103.293 91.8606 103.007 88.315C102.757 85.2273 100.163 82.7241 97.781 80.8328C96.4163 79.7481 92.5164 76.9125 91.0454 77.17C88.7994 77.5625 88.255 80.7129 88.093 83.3496C86.5222 81.7771 84.2048 82.0292 82.8388 83.3087C81.4728 84.5882 80.826 86.6213 80.2311 88.5835C79.635 90.547 79.0038 92.5855 77.6559 93.8896C76.4 95.105 74.4131 96.0248 74.6737 98.0919C74.9834 100.556 78.0447 101.432 79.46 103.533C79.1113 103.018 78.8158 106.307 79.0167 106.865C79.6207 108.545 81.128 109.657 82.218 110.942C84.5392 113.681 85.6746 116.438 88.7501 118.037Z" fill="#FF7B5B"/>
<path fill-rule="evenodd" clip-rule="evenodd" d="M107.995 108.063L100.146 112.331C100.146 112.331 109.573 119.526 107.995 108.063Z" fill="white"/>
<path fill-rule="evenodd" clip-rule="evenodd" d="M97.1966 109.755C97.6256 110.611 96.9906 111.848 95.7787 112.519C94.5669 113.189 93.2372 113.039 92.8082 112.183C92.3805 111.328 93.0143 110.092 94.2261 109.42C95.4392 108.75 96.7676 108.899 97.1966 109.755Z" fill="#FFB2A0"/>
<path fill-rule="evenodd" clip-rule="evenodd" d="M108.657 101.524C109.086 102.38 108.451 103.617 107.239 104.288C106.028 104.958 104.698 104.808 104.269 103.952C103.841 103.097 104.475 101.859 105.687 101.189C106.9 100.519 108.228 100.668 108.657 101.524Z" fill="#FFB2A0"/>
<path fill-rule="evenodd" clip-rule="evenodd" d="M102.516 107.761C102.479 107.713 102.626 107.51 102.965 107.252C103.289 106.989 103.853 106.706 104.272 106.232C104.687 105.772 104.836 104.815 104.201 104.68C103.541 104.444 102.792 105.24 101.932 105.996C101.72 106.181 101.51 106.365 101.301 106.546C101.107 106.734 100.697 107.01 100.272 106.954C99.4622 106.816 99.1174 106.248 98.8064 105.868C98.1843 105.028 97.8006 104.15 97.5881 103.389C97.1669 101.852 97.3561 100.86 97.4572 100.868C97.5985 100.862 97.6451 101.815 98.1804 103.167C98.45 103.839 98.853 104.602 99.4401 105.323C99.7266 105.688 100.087 106.029 100.343 106.04C100.451 106.045 100.535 106.007 100.737 105.828C100.944 105.647 101.151 105.463 101.361 105.278C101.794 104.91 102.168 104.538 102.663 104.192C103.144 103.851 103.83 103.636 104.444 103.855C105.1 104.036 105.485 104.84 105.371 105.399C105.297 105.969 105.027 106.388 104.722 106.695C104.075 107.263 103.497 107.401 103.133 107.573C102.759 107.721 102.555 107.814 102.516 107.761Z" fill="#FF7B5B"/>
<path fill-rule="evenodd" clip-rule="evenodd" d="M100.568 123.829C100.568 123.829 105.575 123.859 108.292 122.1C108.292 122.1 105.994 125.068 101.395 125.836L100.568 123.829Z" fill="#FFA192"/>
<path fill-rule="evenodd" clip-rule="evenodd" d="M102.74 100.223C102.694 100.484 101.994 100.564 101.254 100.907C100.504 101.226 99.9622 101.699 99.7535 101.552C99.5397 101.433 99.8935 100.493 100.907 100.045C101.919 99.5938 102.806 99.9781 102.74 100.223Z" fill="#22343D"/>
<path fill-rule="evenodd" clip-rule="evenodd" d="M92.928 106.99C92.7388 106.843 93.0356 105.995 93.7562 105.146C94.4859 104.28 95.4178 103.991 95.5163 104.233C95.6199 104.469 95.0523 105.018 94.4133 105.78C93.764 106.539 93.1328 107.151 92.928 106.99Z" fill="#22343D"/>
<path fill-rule="evenodd" clip-rule="evenodd" d="M89.1247 105.682C88.719 105.366 88.4028 104.013 89.9555 102.19C91.5224 100.325 93.2734 100.654 93.4833 101.172C93.7088 101.68 93.1256 102.403 91.7505 104.043C90.3547 105.677 89.5641 106.028 89.1247 105.682Z" fill="#FF7B5B"/>
<path fill-rule="evenodd" clip-rule="evenodd" d="M97.3667 98.5002C97.1425 98.0587 97.3901 96.7737 99.4093 95.8784C101.457 94.9532 102.822 95.9738 102.802 96.5039C102.799 97.0312 102.027 97.4005 100.228 98.2154C98.4166 99.0152 97.6091 98.9812 97.3667 98.5002Z" fill="#FF7B5B"/>
<path fill-rule="evenodd" clip-rule="evenodd" d="M528.062 111.282C528.194 111.42 526.019 113.992 521.506 116.794C517.049 119.593 510.036 122.367 501.969 122.43C493.903 122.493 486.851 119.827 482.355 117.098C477.804 114.367 475.593 111.827 475.723 111.687C475.911 111.437 478.384 113.58 482.941 115.925C487.454 118.279 494.255 120.616 501.955 120.558C509.658 120.496 516.424 118.054 520.905 115.63C525.427 113.214 527.871 111.034 528.062 111.282Z" fill="#775298"/>
<path fill-rule="evenodd" clip-rule="evenodd" d="M478.849 107.396C478.726 107.681 476.318 106.63 472.262 105.679C470.24 105.178 467.786 104.791 465.054 104.434C462.312 104.115 459.28 103.861 456.079 103.621C452.876 103.386 449.811 103.115 447.027 102.752C444.243 102.364 441.742 101.902 439.681 101.316C435.544 100.181 433.201 98.8373 433.283 98.6478C433.39 98.3617 435.854 99.246 439.951 100.021C441.995 100.432 444.461 100.749 447.208 101.037C449.96 101.301 453.001 101.518 456.207 101.755C459.416 101.994 462.487 102.304 465.268 102.723C468.048 103.183 470.542 103.717 472.582 104.398C476.679 105.713 478.941 107.217 478.849 107.396Z" fill="#775298"/>
<mask id="mask0" mask-type="alpha" maskUnits="userSpaceOnUse" x="413" y="35" width="163" height="84">
<path fill-rule="evenodd" clip-rule="evenodd" d="M413.798 35.2054H575.386V118.441H413.798V35.2054Z" fill="white"/>
</mask>
<g mask="url(#mask0)">
<path fill-rule="evenodd" clip-rule="evenodd" d="M430.051 52.0647C437.742 50.3491 445.71 51.8262 453.464 53.1848C461.22 54.5433 469.271 55.7683 476.853 53.58C490.542 49.6297 500.934 35.089 515.129 35.2061C520.975 35.2538 526.484 37.8783 532.179 39.2668C539.25 40.9919 546.617 40.8066 553.78 42.037C560.945 43.2675 568.345 46.2967 572.394 52.6316C577.197 60.1492 575.881 70.7533 570.84 78.0979C565.8 85.4439 557.728 89.916 549.458 92.4505C543.689 94.2179 537.543 95.2399 532.551 98.7568C527.502 102.315 524.204 108.04 519.5 112.086C507.694 122.236 489.321 119.327 477.126 109.699C474.063 107.28 471.223 104.473 467.781 102.703C453.779 95.4974 433.642 105.036 421.584 91.9259C409.339 78.6116 411.083 56.2943 430.051 52.0647Z" fill="#775298"/>
</g>
<path fill-rule="evenodd" clip-rule="evenodd" d="M426.208 309.916C426.208 309.916 439.037 338.824 440.538 333.472C442.035 328.117 441.54 315.26 440.736 313.425C439.929 311.589 434.685 303.48 434.685 303.48L426.208 309.916Z" fill="#FFB2A0"/>
<path fill-rule="evenodd" clip-rule="evenodd" d="M518.969 76.1511C520.156 77.7495 519.363 76.0325 520.707 78.3381C526.293 78.1337 530.042 73.1642 530.042 73.1642C530.042 73.1642 538.909 73.4108 538.806 71.7457C538.705 70.0778 530.307 70.7005 530.307 70.7005C530.307 70.7005 539.191 67.7668 538.704 66.3019C538.219 64.8385 527.962 69.5069 527.962 69.5069C527.962 69.5069 538.312 62.7523 536.783 61.669C535.255 60.5884 525.296 66.4845 525.296 66.4845C525.296 66.4845 533.951 59.0105 532.654 58.0471C531.359 57.0837 519.354 66.8116 519.354 66.8116C519.529 62.026 516.264 62.1936 516.264 62.1936L516.399 73.8782C516.399 73.8782 518.422 75.4153 518.969 76.1511Z" fill="#FFC6B2"/>
<path fill-rule="evenodd" clip-rule="evenodd" d="M387.544 23.2669C385.647 23.6349 387.118 22.9413 384.656 23.7316C380.611 19.6764 381.147 13.3033 381.147 13.3033C381.147 13.3033 374.364 7.29956 375.489 6.12633C376.62 4.95037 382.505 11.2785 382.505 11.2785C382.505 11.2785 377.717 2.88189 379.005 2.12699C380.292 1.37208 385.016 12.0225 385.016 12.0225C385.016 12.0225 381.54 -0.253542 383.367 0.00399624C385.192 0.261535 388.917 11.6205 388.917 11.6205C388.917 11.6205 387.165 -0.00826749 388.739 0.175689C390.317 0.358282 393.154 16.0136 393.154 16.0136C396.044 12.3127 398.378 14.7178 398.378 14.7178L391.052 23.1893C391.052 23.1893 388.417 23.0993 387.544 23.2669Z" fill="#FFC6B2"/>
<path fill-rule="evenodd" clip-rule="evenodd" d="M433.564 72.0751C431.111 71.6513 425.179 75.7965 422.211 82.5524C420.549 86.3337 419.406 90.175 421.312 96.3246C422.211 99.2175 424.09 99.5799 424.51 100.876C425.04 102.516 423.284 107.688 423.284 107.688L430.286 110.661C430.741 107.108 431.257 103.534 434.701 101.992C435.989 101.414 437.368 101.049 438.584 100.316C441.864 98.3386 443.616 94.0135 444.964 90.4721C445.97 87.8272 439.715 73.1352 433.564 72.0751Z" fill="#FFC6B2"/>
<path fill-rule="evenodd" clip-rule="evenodd" d="M425.228 172.479L413.496 167.529C413.496 167.529 378.679 235.412 378.824 254.246C378.968 273.079 426.643 310.788 426.643 310.788L434.684 303.481C434.684 303.481 419.965 276.497 412.097 266.983C404.227 257.466 425.228 172.479 425.228 172.479Z" fill="#FFB2A0"/>
<path fill-rule="evenodd" clip-rule="evenodd" d="M483.479 249.807C483.479 249.807 509.336 236.908 504.14 235.769C498.944 234.635 486.793 236.198 485.119 237.19C483.444 238.184 476.183 244.336 476.183 244.336L483.479 249.807Z" fill="#FFC6B2"/>
<path fill-rule="evenodd" clip-rule="evenodd" d="M436.752 171.89L418.955 178.697C418.955 178.697 401.152 261.022 407.949 273.947C414.743 286.877 433.83 278.321 461.013 262.723L483.782 249.655L476.182 244.337C476.182 244.337 449.687 249.796 442.246 255.238C442.246 255.238 446.129 243.671 451.307 227.342C456.483 211.012 460.054 194.343 436.752 171.89Z" fill="#FFC6B2"/>
<path fill-rule="evenodd" clip-rule="evenodd" d="M414.846 115.804C414.846 110.334 416.52 106.379 421.723 106.379C426.925 106.379 434.117 108.296 434.117 113.767C434.117 119.239 430.018 128.122 424.813 128.122C419.61 128.122 414.846 121.276 414.846 115.804Z" fill="#FFC6B2"/>
<path fill-rule="evenodd" clip-rule="evenodd" d="M418.954 105.595C418.954 105.595 402.777 87.1883 399.541 69.1565C396.303 51.1274 390.805 21.8702 390.805 21.8702L384.657 23.7316C384.657 23.7316 381.743 63.7155 384.657 69.8378C387.568 75.9615 401.797 116.729 406.13 127.435L418.954 105.595Z" fill="#FFC6B2"/>
<path fill-rule="evenodd" clip-rule="evenodd" d="M436.335 119.94C436.335 119.94 437.579 114.215 458.036 106.432C478.493 98.6518 517.087 73.4308 517.087 73.4308L520.937 78.0624C520.937 78.0624 499.967 103.529 487.767 107.995C475.567 112.464 449.655 130.076 446.989 131.485C442.957 133.617 443.007 136.3 436.335 119.94Z" fill="#FFC6B2"/>
<path fill-rule="evenodd" clip-rule="evenodd" d="M418.954 105.595C418.954 105.595 402.518 111.195 402.518 137.49C402.518 137.49 402.528 173.503 406.402 180.055C406.402 180.055 412.699 181.751 420.551 180.055C428.783 178.275 436.752 171.89 436.752 171.89L449.681 131.08L448.135 111.96L430.555 108.391C430.555 108.391 435.598 133.168 417.352 122.516C413.806 120.446 422.569 106.389 422.569 106.389L418.954 105.595Z" fill="#22343D"/>
<path fill-rule="evenodd" clip-rule="evenodd" d="M405.047 126.98L396.948 109.24C396.948 109.24 398.109 98.4781 412.978 94.6218C412.978 94.6218 414.481 100.046 416.13 102.119C417.777 104.19 422.575 106.395 422.575 106.395L405.047 126.98Z" fill="#22343D"/>
<path fill-rule="evenodd" clip-rule="evenodd" d="M435.666 134.111L461.42 128.561C461.42 128.561 465.898 118.807 455.281 107.204C455.281 107.204 435.192 108.48 432.592 108.707C430.032 108.931 431.79 111.004 431.79 111.004L435.666 134.111Z" fill="#22343D"/>
<path fill-rule="evenodd" clip-rule="evenodd" d="M406.361 171.283C406.361 171.283 382.001 218.633 377.977 227.094C377.977 227.094 449.842 261.801 479.015 220.024C479.015 220.024 462.42 183.097 436.766 169.039L425.699 165.554L406.794 171.055" fill="#22343D"/>
<path fill-rule="evenodd" clip-rule="evenodd" d="M444.021 90.0244C444.021 90.0244 446.796 87.107 448.503 89.1264C450.21 91.1458 442.314 94.0632 442.314 94.0632L444.021 90.0244Z" fill="#FFC6B2"/>
<path fill-rule="evenodd" clip-rule="evenodd" d="M494.777 50.2356C494.804 50.3365 493.732 50.8243 491.686 51.3353C489.644 51.8517 486.616 52.3205 482.853 52.4009C479.093 52.4799 474.622 52.1283 469.728 51.4307C464.83 50.748 459.51 49.7451 453.912 49.1033C448.324 48.4751 442.95 48.3607 438.191 49.1687C433.431 49.9631 429.31 51.6024 426.161 53.5169C423.012 55.4464 420.82 57.5871 419.475 59.2072C418.122 60.8288 417.512 61.8644 417.375 61.7772C417.3 61.7363 417.707 60.5699 418.933 58.7521C420.151 56.9398 422.301 54.5484 425.508 52.3859C428.712 50.237 432.971 48.3906 437.919 47.4668C442.874 46.5293 448.416 46.6015 454.101 47.2419C459.792 47.8946 465.119 48.9548 469.96 49.7233C474.799 50.5068 479.174 50.9865 482.857 51.0764C490.241 51.293 494.709 49.9154 494.777 50.2356Z" fill="#775298"/>
<path fill-rule="evenodd" clip-rule="evenodd" d="M429.89 88.3682C429.883 88.4827 429.092 88.5631 427.885 88.142C427.587 88.0317 427.235 87.8872 426.907 87.5711C426.745 87.413 426.594 87.2032 426.502 86.9511C426.37 86.5982 426.381 86.1976 426.512 85.8923C426.55 85.831 426.548 85.6852 426.624 85.6825L426.859 85.6743C427.009 85.6525 427.187 85.7043 427.36 85.7383C427.679 85.8024 427.782 85.7929 428.008 85.8092C428.406 85.8187 428.819 85.7751 429.231 85.6798C430.916 85.3064 432.043 84.0173 432.549 82.9572C433.079 81.8903 433.125 81.0877 433.267 81.0972C433.366 81.0836 433.563 81.9366 433.125 83.2243C432.902 83.8552 432.515 84.5787 431.889 85.2137C431.267 85.8474 430.405 86.3679 429.426 86.5927C428.938 86.7072 428.447 86.7508 427.973 86.7249C427.767 86.714 427.443 86.6704 427.349 86.6486C427.262 86.6336 427.272 86.6132 427.255 86.6241C427.245 86.635 427.24 86.6527 427.241 86.6786C427.276 86.8012 427.34 86.9184 427.429 87.0233C427.609 87.2373 427.871 87.3967 428.126 87.5302C429.17 88.0685 429.91 88.2279 429.89 88.3682Z" fill="#FF7B5B"/>
<path fill-rule="evenodd" clip-rule="evenodd" d="M424.113 88.6836L433.6 92.6134C433.6 92.6134 425.263 98.6581 424.113 88.6836Z" fill="white"/>
<path fill-rule="evenodd" clip-rule="evenodd" d="M437.651 90.5746C437.315 91.2477 436.27 91.3649 435.317 90.8376C434.365 90.3116 433.866 89.3387 434.201 88.6669C434.538 87.9937 435.584 87.8752 436.537 88.4025C437.489 88.9299 437.988 89.9014 437.651 90.5746Z" fill="#FFB2A0"/>
<path fill-rule="evenodd" clip-rule="evenodd" d="M427.063 84.6721C426.776 85.3698 425.743 85.5715 424.755 85.1218C423.768 84.6721 423.199 83.7428 423.486 83.0452C423.773 82.3475 424.807 82.1458 425.795 82.5955C426.782 83.0452 427.351 83.9745 427.063 84.6721Z" fill="#FFB2A0"/>
<path fill-rule="evenodd" clip-rule="evenodd" d="M423.549 99.6227C423.549 99.6227 426.875 102.551 430.345 101.608C430.345 101.608 429.148 103.494 424.543 102.802C424.543 102.802 424.926 100.724 423.549 99.6227Z" fill="#FFA192"/>
<path fill-rule="evenodd" clip-rule="evenodd" d="M436.741 84.3102C436.741 84.7463 436.404 85.1006 435.99 85.1006C435.575 85.1006 435.238 84.7463 435.238 84.3102C435.238 83.8742 435.575 83.5199 435.99 83.5199C436.404 83.5199 436.741 83.8742 436.741 84.3102Z" fill="#22343D"/>
<path fill-rule="evenodd" clip-rule="evenodd" d="M430.59 81.9809C430.59 82.4169 430.253 82.7712 429.839 82.7712C429.424 82.7712 429.088 82.4169 429.088 81.9809C429.088 81.5448 429.424 81.1906 429.839 81.1906C430.253 81.1906 430.59 81.5448 430.59 81.9809Z" fill="#22343D"/>
<path fill-rule="evenodd" clip-rule="evenodd" d="M439.156 82.2051C438.924 82.3086 438.476 81.7377 437.797 81.2757C437.132 80.7934 436.458 80.5767 436.459 80.3124C436.437 80.0589 437.378 79.8532 438.292 80.4977C439.207 81.1381 439.388 82.1288 439.156 82.2051Z" fill="#775298"/>
<path fill-rule="evenodd" clip-rule="evenodd" d="M428.316 78.3707C428.3 78.124 429.108 77.8134 430.189 77.8433C431.289 77.8679 432.102 78.4293 431.989 78.6636C431.885 78.9007 431.119 78.7986 430.154 78.7795C429.183 78.7495 428.331 78.6391 428.316 78.3707Z" fill="#775298"/>
<path fill-rule="evenodd" clip-rule="evenodd" d="M431.703 321.662C431.703 321.662 435.65 336.389 439.725 335.183C443.799 333.979 440.736 313.425 440.736 313.425L436.67 306.669C436.67 306.669 440.489 341.074 431.703 321.662Z" fill="#22343D"/>
<path fill-rule="evenodd" clip-rule="evenodd" d="M481.467 240.014C481.467 240.014 484.337 236.722 487.815 236.174C491.295 235.625 503.731 234.07 505.557 235.808C507.385 237.545 495.478 243.37 495.478 243.37C495.478 243.37 499.626 240.591 497.904 239.558C494.86 237.728 481.467 240.014 481.467 240.014Z" fill="#22343D"/>
<path fill-rule="evenodd" clip-rule="evenodd" d="M476.533 243.957L480.427 252.268L482.551 251.028L477.359 242.841L476.533 243.957Z" fill="#22343D"/>
<path fill-rule="evenodd" clip-rule="evenodd" d="M432.997 300.149L423.44 309.205L426.272 311.686L434.294 302.506L432.997 300.149Z" fill="#22343D"/>
<path fill-rule="evenodd" clip-rule="evenodd" d="M233.191 209.993C230.473 202.902 229.429 195.007 225.373 188.661C219.537 179.53 208.328 174.999 203.592 165.188C201.58 161.021 200.949 156.255 200.929 151.582C200.89 142.338 203.522 132.511 210.313 126.636C218.117 119.886 229.825 119.98 238.965 124.515C248.102 129.05 255.084 137.281 261.02 145.88C266.957 154.476 272.155 163.703 279.068 171.451C284.194 177.196 290.273 182.15 294.134 188.899C304.719 207.403 293.828 230.814 275.142 237.492C258.722 243.359 238.872 224.819 233.191 209.993Z" fill="#22343D"/>
<path fill-rule="evenodd" clip-rule="evenodd" d="M209.8 340.493C211.425 341.898 209.652 340.925 212.016 342.544C211.488 348.753 206.025 352.665 206.025 352.665C206.025 352.665 205.795 362.551 204.04 362.348C202.281 362.148 203.407 352.829 203.407 352.829C203.407 352.829 199.811 362.566 198.289 361.946C196.769 361.329 202.275 350.155 202.275 350.155C202.275 350.155 194.558 361.322 193.498 359.562C192.439 357.802 199.229 347.027 199.229 347.027C199.229 347.027 190.845 356.268 189.897 354.772C188.951 353.28 199.903 340.427 199.903 340.427C194.834 340.369 195.193 336.741 195.193 336.741L207.539 337.511C207.539 337.511 209.052 339.844 209.8 340.493Z" fill="#FFC6B2"/>
<path fill-rule="evenodd" clip-rule="evenodd" d="M327.746 154.045C329.859 154.435 328.219 153.699 330.961 154.537C335.463 150.236 334.866 143.479 334.866 143.479C334.866 143.479 342.416 137.113 341.164 135.869C339.905 134.622 333.354 141.33 333.354 141.33C333.354 141.33 338.684 132.428 337.25 131.627C335.819 130.827 330.561 142.121 330.561 142.121C330.561 142.121 334.43 129.103 332.395 129.376C330.366 129.65 326.22 141.694 326.22 141.694C326.22 141.694 328.169 129.364 326.415 129.558C324.66 129.752 321.822 145.906 321.822 145.906C317.688 142.369 314.794 144.633 314.794 144.633L323.843 153.962C323.843 153.962 326.776 153.868 327.746 154.045Z" fill="#FFC6B2"/>
<path fill-rule="evenodd" clip-rule="evenodd" d="M276.06 208.035C279.879 207.409 291.527 215.345 288.563 231.461C288.315 232.814 286.634 235.792 286.216 237.024C285.687 238.584 289.807 244.295 289.807 244.295L279.17 247.868C278.717 244.49 279.48 239.553 276.043 238.086C274.757 237.537 273.381 237.189 272.168 236.493C268.893 234.612 267.144 230.498 265.799 227.131C264.794 224.615 264.03 221.908 264.058 219.178C264.128 212.302 269.92 209.044 276.06 208.035Z" fill="#FFC6B2"/>
<path fill-rule="evenodd" clip-rule="evenodd" d="M297.36 252.173C297.36 246.372 295.61 244.158 289.819 244.158C284.029 244.158 276.385 246.372 276.385 252.173C276.385 257.975 280.474 265.235 286.267 265.235C292.056 265.235 297.36 257.975 297.36 252.173Z" fill="#FFC6B2"/>
<path fill-rule="evenodd" clip-rule="evenodd" d="M292.787 241.346C292.787 241.346 310.793 221.828 314.395 202.707C317.998 183.588 324.118 152.564 324.118 152.564L330.961 154.537C330.961 154.537 334.204 196.937 330.961 203.429C327.721 209.924 309.352 255.018 309.712 266.56L292.787 241.346Z" fill="#FFC6B2"/>
<path fill-rule="evenodd" clip-rule="evenodd" d="M260.69 250.797C260.69 250.797 254.567 251.879 245.203 274.247C235.839 296.613 207.028 338.252 207.028 338.252L211.711 342.786C211.711 342.786 239.801 320.782 245.203 307.435C250.604 294.088 257.447 277.494 260.69 278.213C263.93 278.937 277.616 259.093 260.69 250.797Z" fill="#FFC6B2"/>
<path fill-rule="evenodd" clip-rule="evenodd" d="M308.897 269.542L317.281 245.213C317.281 245.213 315.987 233.802 299.439 229.711L290.065 243.911L308.897 269.542Z" fill="#FF7B5B"/>
<path fill-rule="evenodd" clip-rule="evenodd" d="M263.485 248.93C263.485 248.93 253.594 249.806 245.576 268.32C245.576 268.32 254.393 281.118 260.844 281.55C260.844 281.55 284.801 260.02 263.485 248.93Z" fill="#FF7B5B"/>
<path fill-rule="evenodd" clip-rule="evenodd" d="M290.663 468.488C290.663 468.488 276.385 499.143 274.715 493.467C273.049 487.789 273.599 474.155 274.494 472.209C275.392 470.262 281.229 461.663 281.229 461.663L290.663 468.488Z" fill="#FFC6B2"/>
<path fill-rule="evenodd" clip-rule="evenodd" d="M291.754 322.747L304.812 317.498C304.812 317.498 343.564 389.483 343.403 409.455C343.243 429.425 290.18 469.413 290.18 469.413L281.229 461.663C281.229 461.663 306.38 422.785 315.138 412.696C319.517 407.65 288.165 382.923 283.417 359.132C278.668 335.34 291.754 322.747 291.754 322.747Z" fill="#654287"/>
<path fill-rule="evenodd" clip-rule="evenodd" d="M213.244 452.429C213.244 452.429 186.535 473.127 187.646 467.318C188.76 461.504 195.484 449.638 197.17 448.318C198.859 447 207.978 442.034 207.978 442.034L213.244 452.429Z" fill="#FFC6B2"/>
<path fill-rule="evenodd" clip-rule="evenodd" d="M256.228 348.237L294.861 324.698C294.861 324.698 296.394 406.467 287.119 424.147C277.846 441.827 212.391 453.028 212.391 453.028L207.978 442.035C207.978 442.035 248.361 416.739 260.759 411.788C273.158 406.835 256.228 348.237 256.228 348.237Z" fill="#775298"/>
<path fill-rule="evenodd" clip-rule="evenodd" d="M279.236 308.596C279.236 308.596 250.79 319.185 256.229 348.238C261.665 377.289 270.729 382.736 270.729 382.736L287.042 354.593L303.42 317.738L287.042 315.553L279.236 308.596Z" fill="#775298"/>
<path fill-rule="evenodd" clip-rule="evenodd" d="M292.787 241.346C292.787 241.346 313.73 253.686 313.73 281.57C313.73 281.57 311.069 313.359 306.757 320.304C306.757 320.304 299.748 322.104 291.009 320.304C281.846 318.418 272.978 311.647 272.978 311.647L265.821 272.728L260.253 250.003L263.272 248.957L279.023 247.137C279.023 247.137 276.76 271.875 294.347 259.591C298.052 257.003 289.736 244.104 289.736 244.104L292.787 241.346Z" fill="#FF7B5B"/>
<path fill-rule="evenodd" clip-rule="evenodd" d="M305.606 135.978L349.516 162.909L374.216 113.857L333.05 89.8119L305.606 135.978Z" fill="white"/>
<path fill-rule="evenodd" clip-rule="evenodd" d="M366.692 370.786L398.097 350.347L372.151 302.732L343.444 322.303L366.692 370.786Z" fill="white"/>
<path fill-rule="evenodd" clip-rule="evenodd" d="M212.065 167.89C212.148 167.813 213.118 168.738 214.651 170.625C216.178 172.515 218.26 175.389 220.351 179.267C222.449 183.129 224.525 188.029 226.008 193.716C227.543 199.362 228.572 205.708 230.931 211.82C232.155 214.84 233.639 217.651 235.406 220.136C237.188 222.606 239.164 224.772 241.199 226.662C245.357 230.341 249.713 232.872 253.595 234.334C257.472 235.816 260.794 236.481 263.104 236.72C265.411 236.988 266.715 237.028 266.716 237.187C266.722 237.287 265.422 237.495 263.053 237.447C260.685 237.428 257.239 236.953 253.18 235.585C249.118 234.236 244.529 231.739 240.14 227.98C237.988 226.048 235.896 223.81 234.011 221.239C232.142 218.653 230.564 215.696 229.282 212.53C226.825 206.141 225.854 199.739 224.424 194.169C223.06 188.579 221.162 183.769 219.244 179.899C217.338 176.018 215.445 173.076 214.104 171.071C212.755 169.069 211.964 167.984 212.065 167.89Z" fill="#22343D"/>
<path fill-rule="evenodd" clip-rule="evenodd" d="M266.013 136.383C266.336 136.331 266.65 140.875 269.068 147.597C270.276 150.945 272.072 154.797 274.653 158.659C275.942 160.592 277.426 162.497 279.106 164.396C280.774 166.302 282.591 168.238 284.309 170.41C287.752 174.794 290.121 179.532 292.352 183.714C294.567 187.937 296.331 191.954 297.228 195.547C298.163 199.129 298.218 202.213 297.921 204.258C297.611 206.313 297.125 207.354 297.045 207.326C296.891 207.283 297.142 206.184 297.23 204.193C297.307 202.205 297.066 199.308 296.02 195.922C295.009 192.522 293.19 188.69 290.921 184.557C288.617 180.426 286.227 175.783 282.937 171.605C281.286 169.515 279.495 167.586 277.817 165.632C276.129 163.687 274.595 161.662 273.3 159.636C270.703 155.579 268.968 151.536 267.882 148.041C266.772 144.547 266.299 141.599 266.074 139.567C265.853 137.531 265.912 136.392 266.013 136.383Z" fill="#22343D"/>
<path fill-rule="evenodd" clip-rule="evenodd" d="M279.475 225.553C279.458 225.422 280.174 225.302 280.849 224.468C281.005 224.276 281.161 223.995 281.159 223.832C281.155 223.656 281.038 223.351 280.837 223.175C280.629 222.979 280.397 222.883 280.091 222.916C279.775 222.941 279.39 223.105 278.887 223.184C277.785 223.338 276.926 222.684 276.361 222.154C275.78 221.597 275.337 221.032 275.006 220.525C274.348 219.504 274.143 218.767 274.244 218.712C274.361 218.647 274.758 219.257 275.5 220.113C275.871 220.538 276.339 221.026 276.891 221.496C277.435 221.953 278.101 222.368 278.766 222.258C279.119 222.21 279.53 222.037 280.03 222.002C280.539 221.949 281.106 222.195 281.417 222.563C281.747 222.939 281.932 223.382 281.894 223.907C281.795 224.444 281.524 224.694 281.3 224.929C280.332 225.82 279.444 225.674 279.475 225.553Z" fill="#FF7B5B"/>
<path fill-rule="evenodd" clip-rule="evenodd" d="M284.665 226.321L276.231 229.545C276.231 229.545 283.387 236.126 284.665 226.321Z" fill="white"/>
<path fill-rule="evenodd" clip-rule="evenodd" d="M275.39 225.772C275.727 226.445 275.228 227.418 274.275 227.944C273.322 228.471 272.278 228.354 271.941 227.681C271.604 227.009 272.103 226.036 273.055 225.509C274.008 224.981 275.053 225.099 275.39 225.772Z" fill="#FFB2A0"/>
<path fill-rule="evenodd" clip-rule="evenodd" d="M285.387 220.382C285.663 221.085 285.08 222.003 284.086 222.435C283.091 222.869 282.06 222.649 281.784 221.946C281.508 221.243 282.091 220.324 283.087 219.893C284.081 219.461 285.111 219.679 285.387 220.382Z" fill="#FFB2A0"/>
<path fill-rule="evenodd" clip-rule="evenodd" d="M276.481 238.321C276.481 238.321 279.302 238.925 282.899 237.981C282.899 237.981 281.126 239.792 278.229 240.213C278.229 240.213 277.58 238.951 276.481 238.321Z" fill="#FFA192"/>
<path fill-rule="evenodd" clip-rule="evenodd" d="M279.363 218.391C279.679 218.673 279.718 219.172 279.45 219.504C279.182 219.837 278.709 219.878 278.391 219.596C278.075 219.315 278.036 218.816 278.304 218.482C278.573 218.15 279.047 218.109 279.363 218.391Z" fill="#22343D"/>
<path fill-rule="evenodd" clip-rule="evenodd" d="M273.696 221.819C274.012 222.101 274.051 222.6 273.783 222.932C273.516 223.265 273.042 223.306 272.724 223.024C272.408 222.741 272.369 222.244 272.637 221.91C272.906 221.578 273.38 221.537 273.696 221.819Z" fill="#22343D"/>
<path fill-rule="evenodd" clip-rule="evenodd" d="M279.397 215.093C279.322 215.346 278.618 215.337 277.844 215.583C277.064 215.804 276.472 216.205 276.28 216.032C276.081 215.887 276.54 214.999 277.599 214.683C278.655 214.362 279.491 214.858 279.397 215.093Z" fill="#22343D"/>
<path fill-rule="evenodd" clip-rule="evenodd" d="M269.607 221.309C269.418 221.162 269.714 220.315 270.435 219.467C271.163 218.6 272.096 218.312 272.194 218.553C272.299 218.788 271.73 219.338 271.091 220.099C270.443 220.858 269.812 221.471 269.607 221.309Z" fill="#22343D"/>
<path fill-rule="evenodd" clip-rule="evenodd" d="M266.426 227.893C266.426 227.893 263.721 225.504 262.422 227.665C261.125 229.826 268.265 230.964 268.265 230.964L266.426 227.893Z" fill="#FFC6B2"/>
<path fill-rule="evenodd" clip-rule="evenodd" d="M201.388 445.702C201.388 445.702 197.51 447.475 196.499 448.539C195.487 449.602 186.213 466.441 187.394 468.568C188.575 470.696 197.874 463.475 197.874 463.475C197.874 463.475 190.093 465.024 201.388 445.702Z" fill="#775298"/>
<path fill-rule="evenodd" clip-rule="evenodd" d="M277.058 467.97C277.058 467.97 274.304 471.1 273.879 472.537C273.453 473.972 272.693 493.414 274.68 494.72C276.665 496.027 282.093 485.299 282.093 485.299C282.093 485.299 275.604 490.643 277.058 468.015" fill="#775298"/>
</svg>
