<svg width="128" height="118" viewBox="0 0 128 118" fill="none" xmlns="http://www.w3.org/2000/svg">
<rect y="0.585815" width="128" height="117.269" rx="24" fill="#F6F7FB"/>
<path d="M31.9213 88.3741C31.0573 88.3741 30.22 88.2514 29.4093 88.0061C28.6093 87.7607 27.9746 87.4354 27.5053 87.0301L28.2253 85.4141C28.684 85.7767 29.244 86.0754 29.9053 86.3101C30.5773 86.5341 31.2493 86.6461 31.9213 86.6461C32.7533 86.6461 33.372 86.5127 33.7773 86.2461C34.1933 85.9794 34.4013 85.6274 34.4013 85.1901C34.4013 84.8701 34.284 84.6087 34.0493 84.4061C33.8253 84.1927 33.5373 84.0274 33.1853 83.91C32.8333 83.7927 32.3533 83.6594 31.7453 83.5101C30.892 83.3074 30.1986 83.1047 29.6653 82.9021C29.1426 82.6994 28.6893 82.3847 28.3053 81.958C27.932 81.5207 27.7453 80.934 27.7453 80.198C27.7453 79.5794 27.9106 79.0194 28.2413 78.5181C28.5826 78.006 29.0893 77.6007 29.7613 77.302C30.444 77.0034 31.276 76.854 32.2573 76.854C32.94 76.854 33.612 76.9394 34.2733 77.1101C34.9346 77.2807 35.5053 77.526 35.9853 77.8461L35.3293 79.462C34.8386 79.1741 34.3266 78.9554 33.7933 78.8061C33.26 78.6567 32.7426 78.582 32.2413 78.582C31.42 78.582 30.8066 78.7207 30.4013 78.998C30.0066 79.2754 29.8093 79.6434 29.8093 80.102C29.8093 80.422 29.9213 80.6834 30.1453 80.886C30.38 81.0887 30.6733 81.2487 31.0253 81.366C31.3773 81.4834 31.8573 81.6167 32.4653 81.766C33.2973 81.958 33.98 82.1607 34.5133 82.3741C35.0466 82.5767 35.5 82.8914 35.8733 83.318C36.2573 83.7447 36.4493 84.3207 36.4493 85.0461C36.4493 85.6647 36.2786 86.2247 35.9373 86.7261C35.6066 87.2274 35.1 87.6274 34.4173 87.9261C33.7346 88.2247 32.9026 88.3741 31.9213 88.3741ZM46.5918 79.67V88.2141H44.6878V87.1261C44.3678 87.5101 43.9678 87.8087 43.4878 88.0221C43.0078 88.2247 42.4905 88.3261 41.9358 88.3261C40.7945 88.3261 39.8931 88.0114 39.2318 87.3821C38.5811 86.7421 38.2558 85.7981 38.2558 84.5501V79.67H40.2558V84.2781C40.2558 85.0461 40.4265 85.6221 40.7678 86.0061C41.1198 86.3794 41.6158 86.5661 42.2558 86.5661C42.9705 86.5661 43.5358 86.3474 43.9518 85.9101C44.3785 85.4621 44.5918 84.8221 44.5918 83.9901V79.67H46.5918ZM54.0584 79.574C55.1358 79.574 55.9998 79.8887 56.6504 80.518C57.3011 81.1474 57.6264 82.0807 57.6264 83.318V88.2141H55.6264V83.574C55.6264 82.8274 55.4504 82.2674 55.0984 81.8941C54.7464 81.51 54.2451 81.318 53.5944 81.318C52.8584 81.318 52.2771 81.542 51.8504 81.99C51.4238 82.4274 51.2104 83.0621 51.2104 83.8941V88.2141H49.2104V79.67H51.1144V80.774C51.4451 80.3794 51.8611 80.0807 52.3624 79.878C52.8638 79.6754 53.4291 79.574 54.0584 79.574ZM69.9614 88.3741C68.8308 88.3741 67.8068 88.1287 66.8894 87.6381C65.9828 87.1367 65.2681 86.4487 64.7454 85.5741C64.2334 84.6994 63.9774 83.7127 63.9774 82.614C63.9774 81.5154 64.2388 80.5287 64.7614 79.654C65.2841 78.7794 65.9988 78.0967 66.9054 77.606C67.8228 77.1047 68.8468 76.854 69.9774 76.854C70.8948 76.854 71.7321 77.014 72.4894 77.3341C73.2468 77.654 73.8868 78.118 74.4094 78.726L73.0654 79.9901C72.2548 79.1154 71.2574 78.6781 70.0734 78.6781C69.3054 78.6781 68.6174 78.8487 68.0094 79.1901C67.4014 79.5207 66.9268 79.9847 66.5854 80.582C66.2441 81.1794 66.0734 81.8567 66.0734 82.614C66.0734 83.3714 66.2441 84.0487 66.5854 84.6461C66.9268 85.2434 67.4014 85.7127 68.0094 86.0541C68.6174 86.3847 69.3054 86.5501 70.0734 86.5501C71.2574 86.5501 72.2548 86.1074 73.0654 85.2221L74.4094 86.5021C73.8868 87.1101 73.2414 87.5741 72.4734 87.8941C71.7161 88.2141 70.8788 88.3741 69.9614 88.3741ZM79.3963 79.574C80.655 79.574 81.615 79.8781 82.2763 80.4861C82.9483 81.0834 83.2843 81.99 83.2843 83.206V88.2141H81.3963V87.1741C81.151 87.5474 80.799 87.8354 80.3403 88.0381C79.8923 88.2301 79.3483 88.3261 78.7083 88.3261C78.0683 88.3261 77.5083 88.2194 77.0283 88.0061C76.5483 87.7821 76.175 87.4781 75.9083 87.0941C75.6523 86.6994 75.5243 86.2567 75.5243 85.7661C75.5243 84.9981 75.807 84.3847 76.3723 83.9261C76.9483 83.4567 77.8496 83.2221 79.0763 83.2221H81.2843V83.094C81.2843 82.4967 81.103 82.0381 80.7403 81.7181C80.3883 81.398 79.8603 81.238 79.1563 81.238C78.6763 81.238 78.2016 81.3127 77.7323 81.462C77.2736 81.6114 76.8843 81.8194 76.5643 82.0861L75.7803 80.63C76.2283 80.2887 76.767 80.0274 77.3963 79.8461C78.0256 79.6647 78.6923 79.574 79.3963 79.574ZM79.1243 86.8701C79.6256 86.8701 80.0683 86.7581 80.4523 86.5341C80.847 86.2994 81.1243 85.9687 81.2843 85.5421V84.5501H79.2203C78.0683 84.5501 77.4923 84.9287 77.4923 85.6861C77.4923 86.0487 77.6363 86.3367 77.9243 86.5501C78.2123 86.7634 78.6123 86.8701 79.1243 86.8701ZM87.7551 80.918C88.3311 80.022 89.3444 79.574 90.7951 79.574V81.478C90.6244 81.446 90.4697 81.43 90.3311 81.43C89.5524 81.43 88.9444 81.6594 88.5071 82.1181C88.0697 82.5661 87.8511 83.2167 87.8511 84.0701V88.2141H85.8511V79.67H87.7551V80.918ZM100.446 83.9901C100.446 84.1287 100.435 84.3261 100.414 84.5821H93.7096C93.8269 85.2114 94.1309 85.7127 94.6216 86.0861C95.1229 86.4487 95.7416 86.6301 96.4776 86.6301C97.4162 86.6301 98.1896 86.3207 98.7976 85.7021L99.8696 86.9341C99.4856 87.3927 99.0002 87.7394 98.4136 87.9741C97.8269 88.2087 97.1656 88.3261 96.4296 88.3261C95.4909 88.3261 94.6642 88.1394 93.9496 87.7661C93.2349 87.3927 92.6802 86.8754 92.2856 86.2141C91.9016 85.5421 91.7096 84.7847 91.7096 83.942C91.7096 83.11 91.8962 82.3634 92.2696 81.7021C92.6536 81.03 93.1816 80.5074 93.8536 80.1341C94.5256 79.7607 95.2829 79.574 96.1256 79.574C96.9576 79.574 97.6989 79.7607 98.3496 80.1341C99.0109 80.4967 99.5229 81.0141 99.8856 81.686C100.259 82.3474 100.446 83.1154 100.446 83.9901ZM96.1256 81.174C95.4856 81.174 94.9416 81.366 94.4936 81.7501C94.0562 82.1234 93.7896 82.6247 93.6936 83.2541H98.5416C98.4562 82.6354 98.1949 82.134 97.7576 81.7501C97.3202 81.366 96.7762 81.174 96.1256 81.174Z" fill="#1A202C"/>
<path d="M64.0001 45.8944C67.0125 45.8944 69.4546 43.657 69.4546 40.8971C69.4546 38.1372 67.0125 35.8999 64.0001 35.8999C60.9876 35.8999 58.5455 38.1372 58.5455 40.8971C58.5455 43.657 60.9876 45.8944 64.0001 45.8944Z" stroke="#1A3078" stroke-width="2.5" stroke-linecap="round" stroke-linejoin="round"/>
<path d="M64 29.903V31.9019" stroke="#1A3078" stroke-width="2.5" stroke-linecap="round" stroke-linejoin="round"/>
<path d="M64 49.8919V51.8908" stroke="#1A3078" stroke-width="2.5" stroke-linecap="round" stroke-linejoin="round"/>
<path d="M55.5127 33.1212L57.0618 34.5404" stroke="#1A3078" stroke-width="2.5" stroke-linecap="round" stroke-linejoin="round"/>
<path d="M70.9381 47.2535L72.4872 48.6727" stroke="#1A3078" stroke-width="2.5" stroke-linecap="round" stroke-linejoin="round"/>
<path d="M52 40.897H54.1818" stroke="#1A3078" stroke-width="2.5" stroke-linecap="round" stroke-linejoin="round"/>
<path d="M73.8182 40.897H76.0001" stroke="#1A3078" stroke-width="2.5" stroke-linecap="round" stroke-linejoin="round"/>
<path d="M55.5127 48.6727L57.0618 47.2535" stroke="#1A3078" stroke-width="2.5" stroke-linecap="round" stroke-linejoin="round"/>
<path d="M70.9381 34.5404L72.4872 33.1212" stroke="#1A3078" stroke-width="2.5" stroke-linecap="round" stroke-linejoin="round"/>
</svg>
