<svg width="128" height="118" viewBox="0 0 128 118" fill="none" xmlns="http://www.w3.org/2000/svg">
<rect y="0.585815" width="128" height="117.269" rx="24" fill="#F6F7FB"/>
<path d="M38.0134 86.4701V88.2141H29.6134V77.014H37.7894V78.758H31.6934V81.6701H37.1014V83.3821H31.6934V86.4701H38.0134ZM48.0308 79.67L44.0308 88.9021C43.6574 89.8301 43.2041 90.4807 42.6708 90.8541C42.1374 91.2381 41.4921 91.4301 40.7348 91.4301C40.3081 91.4301 39.8868 91.3607 39.4708 91.2221C39.0548 91.0834 38.7134 90.8914 38.4467 90.6461L39.2467 89.1741C39.4388 89.3554 39.6628 89.4994 39.9188 89.6061C40.1854 89.7127 40.4521 89.7661 40.7188 89.7661C41.0708 89.7661 41.3588 89.6754 41.5828 89.4941C41.8174 89.3127 42.0308 89.0087 42.2228 88.5821L42.3668 88.2461L38.6387 79.67H40.7188L43.4068 85.9901L46.1108 79.67H48.0308ZM57.0784 83.9901C57.0784 84.1287 57.0677 84.3261 57.0464 84.5821H50.3424C50.4597 85.2114 50.7637 85.7127 51.2544 86.0861C51.7557 86.4487 52.3744 86.6301 53.1104 86.6301C54.049 86.6301 54.8224 86.3207 55.4304 85.7021L56.5024 86.9341C56.1184 87.3927 55.633 87.7394 55.0464 87.9741C54.4597 88.2087 53.7984 88.3261 53.0624 88.3261C52.1237 88.3261 51.297 88.1394 50.5824 87.7661C49.8677 87.3927 49.313 86.8754 48.9184 86.2141C48.5344 85.5421 48.3424 84.7847 48.3424 83.942C48.3424 83.11 48.529 82.3634 48.9024 81.7021C49.2864 81.03 49.8144 80.5074 50.4864 80.1341C51.1584 79.7607 51.9157 79.574 52.7584 79.574C53.5904 79.574 54.3317 79.7607 54.9824 80.1341C55.6437 80.4967 56.1557 81.0141 56.5184 81.686C56.8917 82.3474 57.0784 83.1154 57.0784 83.9901ZM52.7584 81.174C52.1184 81.174 51.5744 81.366 51.1264 81.7501C50.689 82.1234 50.4224 82.6247 50.3264 83.2541H55.1744C55.089 82.6354 54.8277 82.134 54.3904 81.7501C53.953 81.366 53.409 81.174 52.7584 81.174ZM68.7974 88.3741C67.6667 88.3741 66.6427 88.1287 65.7254 87.6381C64.8187 87.1367 64.104 86.4487 63.5814 85.5741C63.0694 84.6994 62.8134 83.7127 62.8134 82.614C62.8134 81.5154 63.0747 80.5287 63.5974 79.654C64.12 78.7794 64.8347 78.0967 65.7414 77.606C66.6587 77.1047 67.6827 76.854 68.8134 76.854C69.7307 76.854 70.568 77.014 71.3254 77.3341C72.0827 77.654 72.7227 78.118 73.2454 78.726L71.9014 79.9901C71.0907 79.1154 70.0934 78.6781 68.9094 78.6781C68.1414 78.6781 67.4534 78.8487 66.8454 79.1901C66.2374 79.5207 65.7627 79.9847 65.4214 80.582C65.08 81.1794 64.9094 81.8567 64.9094 82.614C64.9094 83.3714 65.08 84.0487 65.4214 84.6461C65.7627 85.2434 66.2374 85.7127 66.8454 86.0541C67.4534 86.3847 68.1414 86.5501 68.9094 86.5501C70.0934 86.5501 71.0907 86.1074 71.9014 85.2221L73.2454 86.5021C72.7227 87.1101 72.0774 87.5741 71.3094 87.8941C70.552 88.2141 69.7147 88.3741 68.7974 88.3741ZM78.2323 79.574C79.4909 79.574 80.4509 79.8781 81.1123 80.4861C81.7843 81.0834 82.1203 81.99 82.1203 83.206V88.2141H80.2323V87.1741C79.9869 87.5474 79.6349 87.8354 79.1763 88.0381C78.7283 88.2301 78.1843 88.3261 77.5443 88.3261C76.9043 88.3261 76.3443 88.2194 75.8643 88.0061C75.3843 87.7821 75.0109 87.4781 74.7443 87.0941C74.4883 86.6994 74.3603 86.2567 74.3603 85.7661C74.3603 84.9981 74.6429 84.3847 75.2083 83.9261C75.7843 83.4567 76.6856 83.2221 77.9123 83.2221H80.1203V83.094C80.1203 82.4967 79.9389 82.0381 79.5763 81.7181C79.2243 81.398 78.6963 81.238 77.9923 81.238C77.5123 81.238 77.0376 81.3127 76.5683 81.462C76.1096 81.6114 75.7203 81.8194 75.4003 82.0861L74.6163 80.63C75.0643 80.2887 75.6029 80.0274 76.2323 79.8461C76.8616 79.6647 77.5283 79.574 78.2323 79.574ZM77.9603 86.8701C78.4616 86.8701 78.9043 86.7581 79.2883 86.5341C79.6829 86.2994 79.9603 85.9687 80.1203 85.5421V84.5501H78.0563C76.9043 84.5501 76.3283 84.9287 76.3283 85.6861C76.3283 86.0487 76.4723 86.3367 76.7603 86.5501C77.0483 86.7634 77.4483 86.8701 77.9603 86.8701ZM86.591 80.918C87.167 80.022 88.1803 79.574 89.631 79.574V81.478C89.4603 81.446 89.3057 81.43 89.167 81.43C88.3883 81.43 87.7803 81.6594 87.343 82.1181C86.9057 82.5661 86.687 83.2167 86.687 84.0701V88.2141H84.687V79.67H86.591V80.918ZM99.2815 83.9901C99.2815 84.1287 99.2708 84.3261 99.2495 84.5821H92.5455C92.6628 85.2114 92.9668 85.7127 93.4575 86.0861C93.9588 86.4487 94.5775 86.6301 95.3135 86.6301C96.2522 86.6301 97.0255 86.3207 97.6335 85.7021L98.7055 86.9341C98.3215 87.3927 97.8362 87.7394 97.2495 87.9741C96.6628 88.2087 96.0015 88.3261 95.2655 88.3261C94.3268 88.3261 93.5002 88.1394 92.7855 87.7661C92.0708 87.3927 91.5162 86.8754 91.1215 86.2141C90.7375 85.5421 90.5455 84.7847 90.5455 83.942C90.5455 83.11 90.7322 82.3634 91.1055 81.7021C91.4895 81.03 92.0175 80.5074 92.6895 80.1341C93.3615 79.7607 94.1188 79.574 94.9615 79.574C95.7935 79.574 96.5348 79.7607 97.1855 80.1341C97.8468 80.4967 98.3588 81.0141 98.7215 81.686C99.0948 82.3474 99.2815 83.1154 99.2815 83.9901ZM94.9615 81.174C94.3215 81.174 93.7775 81.366 93.3295 81.7501C92.8922 82.1234 92.6255 82.6247 92.5295 83.2541H97.3775C97.2922 82.6354 97.0308 82.134 96.5935 81.7501C96.1562 81.366 95.6122 81.174 94.9615 81.174Z" fill="#1A202C"/>
<path d="M50 40.8969C50 40.8969 55.0909 31.7353 64 31.7353C72.9091 31.7353 78 40.8969 78 40.8969C78 40.8969 72.9091 50.0585 64 50.0585C55.0909 50.0585 50 40.8969 50 40.8969Z" stroke="#1A3078" stroke-width="2.5" stroke-linecap="round" stroke-linejoin="round"/>
<path d="M63.9998 44.3325C66.1085 44.3325 67.818 42.7943 67.818 40.8968C67.818 38.9994 66.1085 37.4612 63.9998 37.4612C61.8911 37.4612 60.1816 38.9994 60.1816 40.8968C60.1816 42.7943 61.8911 44.3325 63.9998 44.3325Z" stroke="#1A3078" stroke-width="2.5" stroke-linecap="round" stroke-linejoin="round"/>
</svg>
