<svg width="128" height="118" viewBox="0 0 128 118" fill="none" xmlns="http://www.w3.org/2000/svg">
<rect y="0.585815" width="128" height="117.269" rx="24" fill="#F6F7FB"/>
<path d="M50.1045 88.2141L50.0885 80.7901L46.4085 86.9341H45.4805L41.8005 80.886V88.2141H39.8165V77.014H41.5285L45.9765 84.4381L50.3445 77.014H52.0565L52.0725 88.2141H50.1045ZM58.1698 79.574C59.4284 79.574 60.3884 79.8781 61.0498 80.4861C61.7218 81.0834 62.0578 81.99 62.0578 83.206V88.2141H60.1698V87.1741C59.9244 87.5474 59.5724 87.8354 59.1138 88.0381C58.6658 88.2301 58.1218 88.3261 57.4818 88.3261C56.8418 88.3261 56.2818 88.2194 55.8018 88.0061C55.3218 87.7821 54.9484 87.4781 54.6818 87.0941C54.4258 86.6994 54.2978 86.2567 54.2978 85.7661C54.2978 84.9981 54.5804 84.3847 55.1458 83.9261C55.7218 83.4567 56.6231 83.2221 57.8498 83.2221H60.0578V83.094C60.0578 82.4967 59.8764 82.0381 59.5138 81.7181C59.1618 81.398 58.6338 81.238 57.9298 81.238C57.4498 81.238 56.9751 81.3127 56.5058 81.462C56.0471 81.6114 55.6578 81.8194 55.3378 82.0861L54.5538 80.63C55.0018 80.2887 55.5404 80.0274 56.1698 79.8461C56.7991 79.6647 57.4658 79.574 58.1698 79.574ZM57.8978 86.8701C58.3991 86.8701 58.8418 86.7581 59.2258 86.5341C59.6204 86.2994 59.8978 85.9687 60.0578 85.5421V84.5501H57.9938C56.8418 84.5501 56.2658 84.9287 56.2658 85.6861C56.2658 86.0487 56.4098 86.3367 56.6978 86.5501C56.9858 86.7634 57.3858 86.8701 57.8978 86.8701ZM67.2645 88.3261C66.5712 88.3261 65.8938 88.2354 65.2325 88.0541C64.5712 87.8727 64.0432 87.6434 63.6485 87.3661L64.4165 85.8461C64.8005 86.1021 65.2592 86.3101 65.7925 86.4701C66.3365 86.6194 66.8698 86.6941 67.3925 86.6941C68.5872 86.6941 69.1845 86.3794 69.1845 85.7501C69.1845 85.4514 69.0298 85.2434 68.7205 85.1261C68.4218 85.0087 67.9365 84.8967 67.2645 84.7901C66.5605 84.6834 65.9845 84.5607 65.5365 84.422C65.0992 84.2834 64.7152 84.0434 64.3845 83.7021C64.0645 83.35 63.9045 82.8647 63.9045 82.246C63.9045 81.4354 64.2405 80.79 64.9125 80.3101C65.5952 79.8194 66.5125 79.574 67.6645 79.574C68.2512 79.574 68.8378 79.6434 69.4245 79.7821C70.0112 79.91 70.4912 80.086 70.8645 80.3101L70.0965 81.83C69.3712 81.4034 68.5552 81.1901 67.6485 81.1901C67.0618 81.1901 66.6138 81.2807 66.3045 81.462C66.0058 81.6327 65.8565 81.8621 65.8565 82.1501C65.8565 82.4701 66.0165 82.6994 66.3365 82.838C66.6672 82.9661 67.1738 83.0887 67.8565 83.206C68.5392 83.3127 69.0992 83.4354 69.5365 83.574C69.9738 83.7127 70.3472 83.9474 70.6565 84.2781C70.9765 84.6087 71.1365 85.0781 71.1365 85.6861C71.1365 86.4861 70.7898 87.1261 70.0965 87.6061C69.4032 88.0861 68.4592 88.3261 67.2645 88.3261ZM76.3469 84.5501L74.8589 85.9581V88.2141H72.8589V76.342H74.8589V83.5101L79.0029 79.67H81.4029L77.8349 83.2541L81.7389 88.2141H79.3069L76.3469 84.5501ZM85.4051 88.3261C84.7118 88.3261 84.0345 88.2354 83.3731 88.0541C82.7118 87.8727 82.1838 87.6434 81.7891 87.3661L82.5571 85.8461C82.9411 86.1021 83.3998 86.3101 83.9331 86.4701C84.4771 86.6194 85.0105 86.6941 85.5331 86.6941C86.7278 86.6941 87.3251 86.3794 87.3251 85.7501C87.3251 85.4514 87.1705 85.2434 86.8611 85.1261C86.5625 85.0087 86.0771 84.8967 85.4051 84.7901C84.7011 84.6834 84.1251 84.5607 83.6771 84.422C83.2398 84.2834 82.8558 84.0434 82.5251 83.7021C82.2051 83.35 82.0451 82.8647 82.0451 82.246C82.0451 81.4354 82.3811 80.79 83.0531 80.3101C83.7358 79.8194 84.6531 79.574 85.8051 79.574C86.3918 79.574 86.9785 79.6434 87.5651 79.7821C88.1518 79.91 88.6318 80.086 89.0051 80.3101L88.2371 81.83C87.5118 81.4034 86.6958 81.1901 85.7891 81.1901C85.2025 81.1901 84.7545 81.2807 84.4451 81.462C84.1465 81.6327 83.9971 81.8621 83.9971 82.1501C83.9971 82.4701 84.1571 82.6994 84.4771 82.838C84.8078 82.9661 85.3145 83.0887 85.9971 83.206C86.6798 83.3127 87.2398 83.4354 87.6771 83.574C88.1145 83.7127 88.4878 83.9474 88.7971 84.2781C89.1171 84.6087 89.2771 85.0781 89.2771 85.6861C89.2771 86.4861 88.9305 87.1261 88.2371 87.6061C87.5438 88.0861 86.5998 88.3261 85.4051 88.3261Z" fill="#1A202C"/>
<path d="M64 28.0707L50 34.4838L64 40.8969L78 34.4838L64 28.0707Z" stroke="#1A3078" stroke-width="2.5" stroke-linecap="round" stroke-linejoin="round"/>
<path d="M50 47.3101L64 53.7232L78 47.3101" stroke="#1A3078" stroke-width="2.5" stroke-linecap="round" stroke-linejoin="round"/>
<path d="M50 40.8969L64 47.31L78 40.8969" stroke="#1A3078" stroke-width="2.5" stroke-linecap="round" stroke-linejoin="round"/>
</svg>
