<svg width="128" height="118" viewBox="0 0 128 118" fill="none" xmlns="http://www.w3.org/2000/svg">
<rect y="0.585815" width="128" height="117.269" rx="24" fill="#F6F7FB"/>
<path d="M30.3028 78.758V82.166H35.7108V83.9261H30.3028V88.2141H28.2228V77.014H36.3988V78.758H30.3028ZM46.0159 83.9901C46.0159 84.1287 46.0052 84.3261 45.9839 84.5821H39.2799C39.3972 85.2114 39.7012 85.7127 40.1919 86.0861C40.6932 86.4487 41.3119 86.6301 42.0479 86.6301C42.9865 86.6301 43.7599 86.3207 44.3679 85.7021L45.4399 86.9341C45.0559 87.3927 44.5705 87.7394 43.9839 87.9741C43.3972 88.2087 42.7359 88.3261 41.9999 88.3261C41.0612 88.3261 40.2345 88.1394 39.5199 87.7661C38.8052 87.3927 38.2505 86.8754 37.8559 86.2141C37.4719 85.5421 37.2799 84.7847 37.2799 83.942C37.2799 83.11 37.4665 82.3634 37.8399 81.7021C38.2239 81.03 38.7519 80.5074 39.4239 80.1341C40.0959 79.7607 40.8532 79.574 41.6959 79.574C42.5279 79.574 43.2692 79.7607 43.9199 80.1341C44.5812 80.4967 45.0932 81.0141 45.4559 81.686C45.8292 82.3474 46.0159 83.1154 46.0159 83.9901ZM41.6959 81.174C41.0559 81.174 40.5119 81.366 40.0639 81.7501C39.6265 82.1234 39.3599 82.6247 39.2639 83.2541H44.1119C44.0265 82.6354 43.7652 82.134 43.3279 81.7501C42.8905 81.366 42.3465 81.174 41.6959 81.174ZM50.9666 79.574C52.2253 79.574 53.1853 79.8781 53.8466 80.4861C54.5186 81.0834 54.8546 81.99 54.8546 83.206V88.2141H52.9666V87.1741C52.7213 87.5474 52.3693 87.8354 51.9106 88.0381C51.4626 88.2301 50.9186 88.3261 50.2786 88.3261C49.6386 88.3261 49.0786 88.2194 48.5986 88.0061C48.1186 87.7821 47.7453 87.4781 47.4786 87.0941C47.2226 86.6994 47.0946 86.2567 47.0946 85.7661C47.0946 84.9981 47.3773 84.3847 47.9426 83.9261C48.5186 83.4567 49.42 83.2221 50.6466 83.2221H52.8546V83.094C52.8546 82.4967 52.6733 82.0381 52.3106 81.7181C51.9586 81.398 51.4306 81.238 50.7266 81.238C50.2466 81.238 49.772 81.3127 49.3026 81.462C48.844 81.6114 48.4546 81.8194 48.1346 82.0861L47.3506 80.63C47.7986 80.2887 48.3373 80.0274 48.9666 79.8461C49.596 79.6647 50.2626 79.574 50.9666 79.574ZM50.6946 86.8701C51.196 86.8701 51.6386 86.7581 52.0226 86.5341C52.4173 86.2994 52.6946 85.9687 52.8546 85.5421V84.5501H50.7906C49.6386 84.5501 49.0626 84.9287 49.0626 85.6861C49.0626 86.0487 49.2066 86.3367 49.4946 86.5501C49.7826 86.7634 50.1826 86.8701 50.6946 86.8701ZM62.5574 87.7501C62.3227 87.9421 62.0347 88.0861 61.6934 88.1821C61.3627 88.2781 61.0107 88.3261 60.6374 88.3261C59.6987 88.3261 58.9734 88.0807 58.4614 87.5901C57.9494 87.0994 57.6934 86.3847 57.6934 85.4461V81.3341H56.2854V79.734H57.6934V77.7821H59.6934V79.734H61.9814V81.3341H59.6934V85.3981C59.6934 85.8141 59.7947 86.1341 59.9974 86.3581C60.2 86.5714 60.4934 86.6781 60.8774 86.6781C61.3254 86.6781 61.6987 86.5607 61.9974 86.3261L62.5574 87.7501ZM72.4746 79.67V88.2141H70.5706V87.1261C70.2506 87.5101 69.8506 87.8087 69.3706 88.0221C68.8906 88.2247 68.3733 88.3261 67.8186 88.3261C66.6773 88.3261 65.776 88.0114 65.1146 87.3821C64.464 86.7421 64.1386 85.7981 64.1386 84.5501V79.67H66.1386V84.2781C66.1386 85.0461 66.3093 85.6221 66.6506 86.0061C67.0026 86.3794 67.4986 86.5661 68.1386 86.5661C68.8533 86.5661 69.4186 86.3474 69.8346 85.9101C70.2613 85.4621 70.4746 84.8221 70.4746 83.9901V79.67H72.4746ZM76.9973 80.918C77.5733 80.022 78.5866 79.574 80.0373 79.574V81.478C79.8666 81.446 79.7119 81.43 79.5733 81.43C78.7946 81.43 78.1866 81.6594 77.7493 82.1181C77.3119 82.5661 77.0933 83.2167 77.0933 84.0701V88.2141H75.0933V79.67H76.9973V80.918ZM89.6878 83.9901C89.6878 84.1287 89.6771 84.3261 89.6558 84.5821H82.9518C83.0691 85.2114 83.3731 85.7127 83.8638 86.0861C84.3651 86.4487 84.9838 86.6301 85.7198 86.6301C86.6584 86.6301 87.4318 86.3207 88.0398 85.7021L89.1118 86.9341C88.7278 87.3927 88.2424 87.7394 87.6558 87.9741C87.0691 88.2087 86.4078 88.3261 85.6718 88.3261C84.7331 88.3261 83.9064 88.1394 83.1918 87.7661C82.4771 87.3927 81.9224 86.8754 81.5278 86.2141C81.1438 85.5421 80.9518 84.7847 80.9518 83.942C80.9518 83.11 81.1384 82.3634 81.5118 81.7021C81.8958 81.03 82.4238 80.5074 83.0958 80.1341C83.7678 79.7607 84.5251 79.574 85.3678 79.574C86.1998 79.574 86.9411 79.7607 87.5918 80.1341C88.2531 80.4967 88.7651 81.0141 89.1278 81.686C89.5011 82.3474 89.6878 83.1154 89.6878 83.9901ZM85.3678 81.174C84.7278 81.174 84.1838 81.366 83.7358 81.7501C83.2984 82.1234 83.0318 82.6247 82.9358 83.2541H87.7838C87.6984 82.6354 87.4371 82.134 86.9998 81.7501C86.5624 81.366 86.0184 81.174 85.3678 81.174ZM99.9769 76.342V88.2141H98.0569V87.1101C97.7262 87.5154 97.3155 87.8194 96.8249 88.0221C96.3449 88.2247 95.8115 88.3261 95.2249 88.3261C94.4035 88.3261 93.6622 88.1447 93.0009 87.7821C92.3502 87.4194 91.8382 86.9074 91.4649 86.2461C91.0915 85.5741 90.9049 84.8061 90.9049 83.942C90.9049 83.078 91.0915 82.3154 91.4649 81.654C91.8382 80.9927 92.3502 80.4807 93.0009 80.118C93.6622 79.7554 94.4035 79.574 95.2249 79.574C95.7902 79.574 96.3075 79.67 96.7769 79.8621C97.2462 80.0541 97.6462 80.3421 97.9769 80.726V76.342H99.9769ZM95.4649 86.6141C95.9449 86.6141 96.3769 86.5074 96.7609 86.2941C97.1449 86.0701 97.4489 85.7554 97.6729 85.3501C97.8969 84.9447 98.0089 84.4754 98.0089 83.942C98.0089 83.4087 97.8969 82.9394 97.6729 82.534C97.4489 82.1287 97.1449 81.8194 96.7609 81.6061C96.3769 81.3821 95.9449 81.2701 95.4649 81.2701C94.9849 81.2701 94.5529 81.3821 94.1689 81.6061C93.7849 81.8194 93.4809 82.1287 93.2569 82.534C93.0329 82.9394 92.9209 83.4087 92.9209 83.942C92.9209 84.4754 93.0329 84.9447 93.2569 85.3501C93.4809 85.7554 93.7849 86.0701 94.1689 86.2941C94.5529 86.5074 94.9849 86.6141 95.4649 86.6141Z" fill="#1A202C"/>
<path d="M78 34.4838L65.9091 45.3632L59.5455 39.6372L50 48.2262" stroke="#1A3078" stroke-width="2.5" stroke-linecap="round" stroke-linejoin="round"/>
<path d="M70 34.4838H78V41.813" stroke="#1A3078" stroke-width="2.5" stroke-linecap="round" stroke-linejoin="round"/>
</svg>
