<svg width="128" height="118" viewBox="0 0 128 118" fill="none" xmlns="http://www.w3.org/2000/svg">
<rect y="0.585815" width="128" height="117.269" rx="24" fill="#F6F7FB"/>
<path d="M25.4717 88.2141L25.4557 80.7901L21.7757 86.9341H20.8477L17.1677 80.886V88.2141H15.1837V77.014H16.8957L21.3437 84.4381L25.7117 77.014H27.4237L27.4397 88.2141H25.4717ZM34.1129 88.3261C33.2489 88.3261 32.4703 88.1394 31.7769 87.7661C31.0836 87.3927 30.5396 86.8754 30.1449 86.2141C29.7609 85.5421 29.5689 84.7847 29.5689 83.942C29.5689 83.0994 29.7609 82.3474 30.1449 81.686C30.5396 81.0247 31.0836 80.5074 31.7769 80.1341C32.4703 79.7607 33.2489 79.574 34.1129 79.574C34.9876 79.574 35.7716 79.7607 36.4649 80.1341C37.1583 80.5074 37.6969 81.0247 38.0809 81.686C38.4756 82.3474 38.6729 83.0994 38.6729 83.942C38.6729 84.7847 38.4756 85.5421 38.0809 86.2141C37.6969 86.8754 37.1583 87.3927 36.4649 87.7661C35.7716 88.1394 34.9876 88.3261 34.1129 88.3261ZM34.1129 86.6141C34.8489 86.6141 35.4569 86.3687 35.9369 85.8781C36.4169 85.3874 36.6569 84.7421 36.6569 83.942C36.6569 83.1421 36.4169 82.4967 35.9369 82.0061C35.4569 81.5154 34.8489 81.2701 34.1129 81.2701C33.3769 81.2701 32.7689 81.5154 32.2889 82.0061C31.8196 82.4967 31.5849 83.1421 31.5849 83.942C31.5849 84.7421 31.8196 85.3874 32.2889 85.8781C32.7689 86.3687 33.3769 86.6141 34.1129 86.6141ZM40.5854 79.67H42.5854V88.2141H40.5854V79.67ZM41.5934 78.262C41.2308 78.262 40.9268 78.15 40.6814 77.9261C40.4361 77.6914 40.3134 77.4034 40.3134 77.062C40.3134 76.7207 40.4361 76.438 40.6814 76.214C40.9268 75.9794 41.2308 75.8621 41.5934 75.8621C41.9561 75.8621 42.2601 75.974 42.5054 76.198C42.7508 76.4114 42.8734 76.6834 42.8734 77.014C42.8734 77.366 42.7508 77.6647 42.5054 77.91C42.2708 78.1447 41.9668 78.262 41.5934 78.262ZM47.8504 88.3261C47.1571 88.3261 46.4798 88.2354 45.8184 88.0541C45.1571 87.8727 44.6291 87.6434 44.2344 87.3661L45.0024 85.8461C45.3864 86.1021 45.8451 86.3101 46.3784 86.4701C46.9224 86.6194 47.4558 86.6941 47.9784 86.6941C49.1731 86.6941 49.7704 86.3794 49.7704 85.7501C49.7704 85.4514 49.6158 85.2434 49.3064 85.1261C49.0078 85.0087 48.5224 84.8967 47.8504 84.7901C47.1464 84.6834 46.5704 84.5607 46.1224 84.422C45.6851 84.2834 45.3011 84.0434 44.9704 83.7021C44.6504 83.35 44.4904 82.8647 44.4904 82.246C44.4904 81.4354 44.8264 80.79 45.4984 80.3101C46.1811 79.8194 47.0984 79.574 48.2504 79.574C48.8371 79.574 49.4238 79.6434 50.0104 79.7821C50.5971 79.91 51.0771 80.086 51.4504 80.3101L50.6824 81.83C49.9571 81.4034 49.1411 81.1901 48.2344 81.1901C47.6478 81.1901 47.1998 81.2807 46.8904 81.462C46.5918 81.6327 46.4424 81.8621 46.4424 82.1501C46.4424 82.4701 46.6024 82.6994 46.9224 82.838C47.2531 82.9661 47.7598 83.0887 48.4424 83.206C49.1251 83.3127 49.6851 83.4354 50.1224 83.574C50.5598 83.7127 50.9331 83.9474 51.2424 84.2781C51.5624 84.6087 51.7224 85.0781 51.7224 85.6861C51.7224 86.4861 51.3758 87.1261 50.6824 87.6061C49.9891 88.0861 49.0451 88.3261 47.8504 88.3261ZM58.5808 87.7501C58.3461 87.9421 58.0581 88.0861 57.7168 88.1821C57.3861 88.2781 57.0341 88.3261 56.6608 88.3261C55.7221 88.3261 54.9968 88.0807 54.4848 87.5901C53.9728 87.0994 53.7168 86.3847 53.7168 85.4461V81.3341H52.3088V79.734H53.7168V77.7821H55.7168V79.734H58.0048V81.3341H55.7168V85.3981C55.7168 85.8141 55.8181 86.1341 56.0208 86.3581C56.2235 86.5714 56.5168 86.6781 56.9008 86.6781C57.3488 86.6781 57.7221 86.5607 58.0208 86.3261L58.5808 87.7501ZM68.4981 79.67V88.2141H66.5941V87.1261C66.2741 87.5101 65.8741 87.8087 65.3941 88.0221C64.9141 88.2247 64.3967 88.3261 63.8421 88.3261C62.7007 88.3261 61.7994 88.0114 61.1381 87.3821C60.4874 86.7421 60.1621 85.7981 60.1621 84.5501V79.67H62.1621V84.2781C62.1621 85.0461 62.3327 85.6221 62.6741 86.0061C63.0261 86.3794 63.5221 86.5661 64.1621 86.5661C64.8767 86.5661 65.4421 86.3474 65.8581 85.9101C66.2847 85.4621 66.4981 84.8221 66.4981 83.9901V79.67H68.4981ZM73.0207 80.918C73.5967 80.022 74.61 79.574 76.0607 79.574V81.478C75.89 81.446 75.7354 81.43 75.5967 81.43C74.818 81.43 74.21 81.6594 73.7727 82.1181C73.3354 82.5661 73.1167 83.2167 73.1167 84.0701V88.2141H71.1167V79.67H73.0207V80.918ZM77.7573 79.67H79.7573V88.2141H77.7573V79.67ZM78.7653 78.262C78.4026 78.262 78.0986 78.15 77.8533 77.9261C77.608 77.6914 77.4853 77.4034 77.4853 77.062C77.4853 76.7207 77.608 76.438 77.8533 76.214C78.0986 75.9794 78.4026 75.8621 78.7653 75.8621C79.128 75.8621 79.432 75.974 79.6773 76.198C79.9226 76.4114 80.0453 76.6834 80.0453 77.014C80.0453 77.366 79.9226 77.6647 79.6773 77.91C79.4426 78.1447 79.1386 78.262 78.7653 78.262ZM89.0543 86.6141V88.2141H81.6783V86.9501L86.3663 81.2701H81.7743V79.67H88.9263V80.9341L84.2223 86.6141H89.0543ZM98.8049 83.9901C98.8049 84.1287 98.7943 84.3261 98.7729 84.5821H92.0689C92.1863 85.2114 92.4903 85.7127 92.9809 86.0861C93.4823 86.4487 94.1009 86.6301 94.8369 86.6301C95.7756 86.6301 96.5489 86.3207 97.1569 85.7021L98.2289 86.9341C97.8449 87.3927 97.3596 87.7394 96.7729 87.9741C96.1863 88.2087 95.5249 88.3261 94.7889 88.3261C93.8503 88.3261 93.0236 88.1394 92.3089 87.7661C91.5943 87.3927 91.0396 86.8754 90.6449 86.2141C90.2609 85.5421 90.0689 84.7847 90.0689 83.942C90.0689 83.11 90.2556 82.3634 90.6289 81.7021C91.0129 81.03 91.5409 80.5074 92.2129 80.1341C92.8849 79.7607 93.6423 79.574 94.4849 79.574C95.3169 79.574 96.0583 79.7607 96.7089 80.1341C97.3703 80.4967 97.8823 81.0141 98.2449 81.686C98.6183 82.3474 98.8049 83.1154 98.8049 83.9901ZM94.4849 81.174C93.8449 81.174 93.3009 81.366 92.8529 81.7501C92.4156 82.1234 92.1489 82.6247 92.0529 83.2541H96.9009C96.8156 82.6354 96.5543 82.134 96.1169 81.7501C95.6796 81.366 95.1356 81.174 94.4849 81.174ZM102.63 80.918C103.206 80.022 104.219 79.574 105.67 79.574V81.478C105.499 81.446 105.345 81.43 105.206 81.43C104.427 81.43 103.819 81.6594 103.382 82.1181C102.945 82.5661 102.726 83.2167 102.726 84.0701V88.2141H100.726V79.67H102.63V80.918ZM110.038 88.3261C109.345 88.3261 108.667 88.2354 108.006 88.0541C107.345 87.8727 106.817 87.6434 106.422 87.3661L107.19 85.8461C107.574 86.1021 108.033 86.3101 108.566 86.4701C109.11 86.6194 109.643 86.6941 110.166 86.6941C111.361 86.6941 111.958 86.3794 111.958 85.7501C111.958 85.4514 111.803 85.2434 111.494 85.1261C111.195 85.0087 110.71 84.8967 110.038 84.7901C109.334 84.6834 108.758 84.5607 108.31 84.422C107.873 84.2834 107.489 84.0434 107.158 83.7021C106.838 83.35 106.678 82.8647 106.678 82.246C106.678 81.4354 107.014 80.79 107.686 80.3101C108.369 79.8194 109.286 79.574 110.438 79.574C111.025 79.574 111.611 79.6434 112.198 79.7821C112.785 79.91 113.265 80.086 113.638 80.3101L112.87 81.83C112.145 81.4034 111.329 81.1901 110.422 81.1901C109.835 81.1901 109.387 81.2807 109.078 81.462C108.779 81.6327 108.63 81.8621 108.63 82.1501C108.63 82.4701 108.79 82.6994 109.11 82.838C109.441 82.9661 109.947 83.0887 110.63 83.206C111.313 83.3127 111.873 83.4354 112.31 83.574C112.747 83.7127 113.121 83.9474 113.43 84.2781C113.75 84.6087 113.91 85.0781 113.91 85.6861C113.91 86.4861 113.563 87.1261 112.87 87.6061C112.177 88.0861 111.233 88.3261 110.038 88.3261Z" fill="#1A202C"/>
<path d="M63.9931 28.0707L71.7756 35.5864C73.3147 37.0717 74.3631 38.9645 74.7881 41.0253C75.2131 43.0862 74.9957 45.2224 74.1634 47.1639C73.331 49.1054 71.9211 50.7649 70.112 51.9324C68.3029 53.1 66.1759 53.7232 64 53.7232C61.8241 53.7232 59.6971 53.1 57.888 51.9324C56.0789 50.7649 54.669 49.1054 53.8366 47.1639C53.0043 45.2224 52.7869 43.0862 53.2119 41.0253C53.6369 38.9645 54.6853 37.0717 56.2244 35.5864L63.9931 28.0707Z" stroke="#1A3078" stroke-width="2.5" stroke-linecap="round" stroke-linejoin="round"/>
</svg>
