<svg width="128" height="118" viewBox="0 0 128 118" fill="none" xmlns="http://www.w3.org/2000/svg">
<rect y="0.585815" width="128" height="117.269" rx="24" fill="#F6F7FB"/>
<path d="M20.2526 78.774H16.5406V77.014H26.0446V78.774H22.3326V88.2141H20.2526V78.774ZM29.1144 80.918C29.6904 80.022 30.7038 79.574 32.1544 79.574V81.478C31.9838 81.446 31.8291 81.43 31.6904 81.43C30.9118 81.43 30.3038 81.6594 29.8664 82.1181C29.4291 82.5661 29.2104 83.2167 29.2104 84.0701V88.2141H27.2104V79.67H29.1144V80.918ZM41.8049 83.9901C41.8049 84.1287 41.7943 84.3261 41.7729 84.5821H35.0689C35.1863 85.2114 35.4903 85.7127 35.9809 86.0861C36.4823 86.4487 37.1009 86.6301 37.8369 86.6301C38.7756 86.6301 39.5489 86.3207 40.1569 85.7021L41.2289 86.9341C40.8449 87.3927 40.3596 87.7394 39.7729 87.9741C39.1863 88.2087 38.5249 88.3261 37.7889 88.3261C36.8503 88.3261 36.0236 88.1394 35.3089 87.7661C34.5943 87.3927 34.0396 86.8754 33.6449 86.2141C33.2609 85.5421 33.0689 84.7847 33.0689 83.942C33.0689 83.11 33.2556 82.3634 33.6289 81.7021C34.0129 81.03 34.5409 80.5074 35.2129 80.1341C35.8849 79.7607 36.6423 79.574 37.4849 79.574C38.3169 79.574 39.0583 79.7607 39.7089 80.1341C40.3703 80.4967 40.8823 81.0141 41.2449 81.686C41.6183 82.3474 41.8049 83.1154 41.8049 83.9901ZM37.4849 81.174C36.8449 81.174 36.3009 81.366 35.8529 81.7501C35.4156 82.1234 35.1489 82.6247 35.0529 83.2541H39.9009C39.8156 82.6354 39.5543 82.134 39.1169 81.7501C38.6796 81.366 38.1356 81.174 37.4849 81.174ZM46.7557 79.574C48.0144 79.574 48.9744 79.8781 49.6357 80.4861C50.3077 81.0834 50.6437 81.99 50.6437 83.206V88.2141H48.7557V87.1741C48.5104 87.5474 48.1584 87.8354 47.6997 88.0381C47.2517 88.2301 46.7077 88.3261 46.0677 88.3261C45.4277 88.3261 44.8677 88.2194 44.3877 88.0061C43.9077 87.7821 43.5344 87.4781 43.2677 87.0941C43.0117 86.6994 42.8837 86.2567 42.8837 85.7661C42.8837 84.9981 43.1664 84.3847 43.7317 83.9261C44.3077 83.4567 45.209 83.2221 46.4357 83.2221H48.6437V83.094C48.6437 82.4967 48.4624 82.0381 48.0997 81.7181C47.7477 81.398 47.2197 81.238 46.5157 81.238C46.0357 81.238 45.561 81.3127 45.0917 81.462C44.633 81.6114 44.2437 81.8194 43.9237 82.0861L43.1397 80.63C43.5877 80.2887 44.1264 80.0274 44.7557 79.8461C45.385 79.6647 46.0517 79.574 46.7557 79.574ZM46.4837 86.8701C46.985 86.8701 47.4277 86.7581 47.8117 86.5341C48.2064 86.2994 48.4837 85.9687 48.6437 85.5421V84.5501H46.5797C45.4277 84.5501 44.8517 84.9287 44.8517 85.6861C44.8517 86.0487 44.9957 86.3367 45.2837 86.5501C45.5717 86.7634 45.9717 86.8701 46.4837 86.8701ZM58.3464 87.7501C58.1118 87.9421 57.8238 88.0861 57.4824 88.1821C57.1518 88.2781 56.7998 88.3261 56.4264 88.3261C55.4878 88.3261 54.7624 88.0807 54.2504 87.5901C53.7384 87.0994 53.4824 86.3847 53.4824 85.4461V81.3341H52.0744V79.734H53.4824V77.7821H55.4824V79.734H57.7704V81.3341H55.4824V85.3981C55.4824 85.8141 55.5838 86.1341 55.7864 86.3581C55.9891 86.5714 56.2824 86.6781 56.6664 86.6781C57.1144 86.6781 57.4878 86.5607 57.7864 86.3261L58.3464 87.7501ZM70.7757 79.574C71.853 79.574 72.7064 79.8887 73.3357 80.518C73.965 81.1367 74.2797 82.0701 74.2797 83.318V88.2141H72.2797V83.574C72.2797 82.8274 72.1144 82.2674 71.7837 81.8941C71.453 81.51 70.9784 81.318 70.3597 81.318C69.6877 81.318 69.149 81.542 68.7437 81.99C68.3384 82.4274 68.1357 83.0567 68.1357 83.878V88.2141H66.1357V83.574C66.1357 82.8274 65.9704 82.2674 65.6397 81.8941C65.309 81.51 64.8344 81.318 64.2157 81.318C63.533 81.318 62.989 81.5367 62.5837 81.9741C62.189 82.4114 61.9917 83.0461 61.9917 83.878V88.2141H59.9917V79.67H61.8957V80.758C62.2157 80.374 62.6157 80.0807 63.0957 79.878C63.5757 79.6754 64.109 79.574 64.6957 79.574C65.3357 79.574 65.901 79.6967 66.3917 79.942C66.893 80.1767 67.2877 80.5287 67.5757 80.998C67.9277 80.55 68.381 80.2034 68.9357 79.958C69.4904 79.702 70.1037 79.574 70.7757 79.574ZM84.9456 83.9901C84.9456 84.1287 84.9349 84.3261 84.9136 84.5821H78.2096C78.3269 85.2114 78.6309 85.7127 79.1216 86.0861C79.6229 86.4487 80.2416 86.6301 80.9776 86.6301C81.9162 86.6301 82.6896 86.3207 83.2976 85.7021L84.3696 86.9341C83.9856 87.3927 83.5002 87.7394 82.9136 87.9741C82.3269 88.2087 81.6656 88.3261 80.9296 88.3261C79.9909 88.3261 79.1642 88.1394 78.4496 87.7661C77.7349 87.3927 77.1802 86.8754 76.7856 86.2141C76.4016 85.5421 76.2096 84.7847 76.2096 83.942C76.2096 83.11 76.3962 82.3634 76.7696 81.7021C77.1536 81.03 77.6816 80.5074 78.3536 80.1341C79.0256 79.7607 79.7829 79.574 80.6256 79.574C81.4576 79.574 82.1989 79.7607 82.8496 80.1341C83.5109 80.4967 84.0229 81.0141 84.3856 81.686C84.7589 82.3474 84.9456 83.1154 84.9456 83.9901ZM80.6256 81.174C79.9856 81.174 79.4416 81.366 78.9936 81.7501C78.5562 82.1234 78.2896 82.6247 78.1936 83.2541H83.0416C82.9562 82.6354 82.6949 82.134 82.2576 81.7501C81.8202 81.366 81.2762 81.174 80.6256 81.174ZM91.7147 79.574C92.792 79.574 93.656 79.8887 94.3067 80.518C94.9574 81.1474 95.2827 82.0807 95.2827 83.318V88.2141H93.2827V83.574C93.2827 82.8274 93.1067 82.2674 92.7547 81.8941C92.4027 81.51 91.9014 81.318 91.2507 81.318C90.5147 81.318 89.9334 81.542 89.5067 81.99C89.08 82.4274 88.8667 83.0621 88.8667 83.8941V88.2141H86.8667V79.67H88.7707V80.774C89.1014 80.3794 89.5174 80.0807 90.0187 79.878C90.52 79.6754 91.0854 79.574 91.7147 79.574ZM102.956 87.7501C102.721 87.9421 102.433 88.0861 102.092 88.1821C101.761 88.2781 101.409 88.3261 101.036 88.3261C100.097 88.3261 99.3718 88.0807 98.8598 87.5901C98.3478 87.0994 98.0918 86.3847 98.0918 85.4461V81.3341H96.6838V79.734H98.0918V77.7821H100.092V79.734H102.38V81.3341H100.092V85.3981C100.092 85.8141 100.193 86.1341 100.396 86.3581C100.598 86.5714 100.892 86.6781 101.276 86.6781C101.724 86.6781 102.097 86.5607 102.396 86.3261L102.956 87.7501ZM107.241 88.3261C106.548 88.3261 105.87 88.2354 105.209 88.0541C104.548 87.8727 104.02 87.6434 103.625 87.3661L104.393 85.8461C104.777 86.1021 105.236 86.3101 105.769 86.4701C106.313 86.6194 106.846 86.6941 107.369 86.6941C108.564 86.6941 109.161 86.3794 109.161 85.7501C109.161 85.4514 109.006 85.2434 108.697 85.1261C108.398 85.0087 107.913 84.8967 107.241 84.7901C106.537 84.6834 105.961 84.5607 105.513 84.422C105.076 84.2834 104.692 84.0434 104.361 83.7021C104.041 83.35 103.881 82.8647 103.881 82.246C103.881 81.4354 104.217 80.79 104.889 80.3101C105.572 79.8194 106.489 79.574 107.641 79.574C108.228 79.574 108.814 79.6434 109.401 79.7821C109.988 79.91 110.468 80.086 110.841 80.3101L110.073 81.83C109.348 81.4034 108.532 81.1901 107.625 81.1901C107.038 81.1901 106.59 81.2807 106.281 81.462C105.982 81.6327 105.833 81.8621 105.833 82.1501C105.833 82.4701 105.993 82.6994 106.313 82.838C106.644 82.9661 107.15 83.0887 107.833 83.206C108.516 83.3127 109.076 83.4354 109.513 83.574C109.95 83.7127 110.324 83.9474 110.633 84.2781C110.953 84.6087 111.113 85.0781 111.113 85.6861C111.113 86.4861 110.766 87.1261 110.073 87.6061C109.38 88.0861 108.436 88.3261 107.241 88.3261Z" fill="#1A202C"/>
<path d="M64 53.7232C64 53.7232 75 48.5927 75 40.8969V31.9186L64 28.0707L53 31.9186V40.8969C53 48.5927 64 53.7232 64 53.7232Z" stroke="#1A3078" stroke-width="2.5" stroke-linecap="round" stroke-linejoin="round"/>
</svg>
