<svg width="128" height="118" viewBox="0 0 128 118" fill="none" xmlns="http://www.w3.org/2000/svg">
<rect y="0.585815" width="128" height="117.269" rx="24" fill="#F6F7FB"/>
<path d="M31.1435 77.014V88.2141H29.4315L23.2555 80.63V88.2141H21.1915V77.014H22.9035L29.0795 84.5981V77.014H31.1435ZM33.9526 79.67H35.9526V88.2141H33.9526V79.67ZM34.9606 78.262C34.598 78.262 34.294 78.15 34.0486 77.9261C33.8033 77.6914 33.6806 77.4034 33.6806 77.062C33.6806 76.7207 33.8033 76.438 34.0486 76.214C34.294 75.9794 34.598 75.8621 34.9606 75.8621C35.3233 75.8621 35.6273 75.974 35.8726 76.198C36.118 76.4114 36.2406 76.6834 36.2406 77.014C36.2406 77.366 36.118 77.6647 35.8726 77.91C35.638 78.1447 35.334 78.262 34.9606 78.262ZM47.0576 79.67V86.9181C47.0576 89.9261 45.5216 91.4301 42.4496 91.4301C41.6283 91.4301 40.8496 91.3234 40.1136 91.1101C39.3776 90.9074 38.7696 90.6087 38.2896 90.2141L39.1856 88.7101C39.559 89.0194 40.0283 89.2647 40.5936 89.4461C41.1696 89.6381 41.751 89.7341 42.3376 89.7341C43.2763 89.7341 43.9643 89.5207 44.4016 89.0941C44.839 88.6674 45.0576 88.0167 45.0576 87.1421V86.6941C44.7163 87.0674 44.3003 87.3501 43.8096 87.5421C43.319 87.7341 42.7803 87.8301 42.1936 87.8301C41.383 87.8301 40.647 87.6594 39.9856 87.3181C39.335 86.9661 38.8176 86.4754 38.4336 85.8461C38.0603 85.2167 37.8736 84.4967 37.8736 83.686C37.8736 82.8754 38.0603 82.1607 38.4336 81.542C38.8176 80.9127 39.335 80.4274 39.9856 80.0861C40.647 79.7447 41.383 79.574 42.1936 79.574C42.8123 79.574 43.3723 79.6754 43.8736 79.878C44.3856 80.0807 44.8123 80.39 45.1536 80.806V79.67H47.0576ZM42.4976 86.1341C43.255 86.1341 43.8736 85.9101 44.3536 85.4621C44.8443 85.0034 45.0896 84.4114 45.0896 83.686C45.0896 82.9714 44.8443 82.39 44.3536 81.942C43.8736 81.4941 43.255 81.2701 42.4976 81.2701C41.7296 81.2701 41.1003 81.4941 40.6096 81.942C40.1296 82.39 39.8896 82.9714 39.8896 83.686C39.8896 84.4114 40.1296 85.0034 40.6096 85.4621C41.1003 85.9101 41.7296 86.1341 42.4976 86.1341ZM54.535 79.574C55.6123 79.574 56.4763 79.8887 57.127 80.518C57.7777 81.1474 58.103 82.0807 58.103 83.318V88.2141H56.103V83.574C56.103 82.8274 55.927 82.2674 55.575 81.8941C55.223 81.51 54.7217 81.318 54.071 81.318C53.335 81.318 52.7537 81.542 52.327 81.99C51.9003 82.4274 51.687 83.0621 51.687 83.8941V88.2141H49.687V76.342H51.687V80.662C52.0177 80.3101 52.423 80.0434 52.903 79.8621C53.3937 79.67 53.9377 79.574 54.535 79.574ZM65.7761 87.7501C65.5415 87.9421 65.2535 88.0861 64.9121 88.1821C64.5815 88.2781 64.2295 88.3261 63.8561 88.3261C62.9175 88.3261 62.1921 88.0807 61.6801 87.5901C61.1681 87.0994 60.9121 86.3847 60.9121 85.4461V81.3341H59.5041V79.734H60.9121V77.7821H62.9121V79.734H65.2001V81.3341H62.9121V85.3981C62.9121 85.8141 63.0135 86.1341 63.2161 86.3581C63.4188 86.5714 63.7121 86.6781 64.0961 86.6781C64.5441 86.6781 64.9175 86.5607 65.2161 86.3261L65.7761 87.7501ZM77.2193 88.3741C76.0886 88.3741 75.0646 88.1287 74.1473 87.6381C73.2406 87.1367 72.5259 86.4487 72.0033 85.5741C71.4913 84.6994 71.2353 83.7127 71.2353 82.614C71.2353 81.5154 71.4966 80.5287 72.0193 79.654C72.5419 78.7794 73.2566 78.0967 74.1633 77.606C75.0806 77.1047 76.1046 76.854 77.2353 76.854C78.1526 76.854 78.9899 77.014 79.7473 77.3341C80.5046 77.654 81.1446 78.118 81.6673 78.726L80.3233 79.9901C79.5126 79.1154 78.5153 78.6781 77.3313 78.6781C76.5633 78.6781 75.8753 78.8487 75.2673 79.1901C74.6593 79.5207 74.1846 79.9847 73.8433 80.582C73.5019 81.1794 73.3313 81.8567 73.3313 82.614C73.3313 83.3714 73.5019 84.0487 73.8433 84.6461C74.1846 85.2434 74.6593 85.7127 75.2673 86.0541C75.8753 86.3847 76.5633 86.5501 77.3313 86.5501C78.5153 86.5501 79.5126 86.1074 80.3233 85.2221L81.6673 86.5021C81.1446 87.1101 80.4993 87.5741 79.7313 87.8941C78.9739 88.2141 78.1366 88.3741 77.2193 88.3741ZM86.6541 79.574C87.9128 79.574 88.8728 79.8781 89.5341 80.4861C90.2061 81.0834 90.5421 81.99 90.5421 83.206V88.2141H88.6541V87.1741C88.4088 87.5474 88.0568 87.8354 87.5981 88.0381C87.1501 88.2301 86.6061 88.3261 85.9661 88.3261C85.3261 88.3261 84.7661 88.2194 84.2861 88.0061C83.8061 87.7821 83.4328 87.4781 83.1661 87.0941C82.9101 86.6994 82.7821 86.2567 82.7821 85.7661C82.7821 84.9981 83.0648 84.3847 83.6301 83.9261C84.2061 83.4567 85.1075 83.2221 86.3341 83.2221H88.5421V83.094C88.5421 82.4967 88.3608 82.0381 87.9981 81.7181C87.6461 81.398 87.1181 81.238 86.4141 81.238C85.9341 81.238 85.4595 81.3127 84.9901 81.462C84.5315 81.6114 84.1421 81.8194 83.8221 82.0861L83.0381 80.63C83.4861 80.2887 84.0248 80.0274 84.6541 79.8461C85.2835 79.6647 85.9501 79.574 86.6541 79.574ZM86.3821 86.8701C86.8835 86.8701 87.3261 86.7581 87.7101 86.5341C88.1048 86.2994 88.3821 85.9687 88.5421 85.5421V84.5501H86.4781C85.3261 84.5501 84.7501 84.9287 84.7501 85.6861C84.7501 86.0487 84.8941 86.3367 85.1821 86.5501C85.4701 86.7634 85.8701 86.8701 86.3821 86.8701ZM95.0129 80.918C95.5889 80.022 96.6022 79.574 98.0529 79.574V81.478C97.8822 81.446 97.7275 81.43 97.5889 81.43C96.8102 81.43 96.2022 81.6594 95.7649 82.1181C95.3275 82.5661 95.1089 83.2167 95.1089 84.0701V88.2141H93.1089V79.67H95.0129V80.918ZM107.703 83.9901C107.703 84.1287 107.693 84.3261 107.671 84.5821H100.967C101.085 85.2114 101.389 85.7127 101.879 86.0861C102.381 86.4487 102.999 86.6301 103.735 86.6301C104.674 86.6301 105.447 86.3207 106.055 85.7021L107.127 86.9341C106.743 87.3927 106.258 87.7394 105.671 87.9741C105.085 88.2087 104.423 88.3261 103.687 88.3261C102.749 88.3261 101.922 88.1394 101.207 87.7661C100.493 87.3927 99.938 86.8754 99.5434 86.2141C99.1594 85.5421 98.9674 84.7847 98.9674 83.942C98.9674 83.11 99.154 82.3634 99.5274 81.7021C99.9114 81.03 100.439 80.5074 101.111 80.1341C101.783 79.7607 102.541 79.574 103.383 79.574C104.215 79.574 104.957 79.7607 105.607 80.1341C106.269 80.4967 106.781 81.0141 107.143 81.686C107.517 82.3474 107.703 83.1154 107.703 83.9901ZM103.383 81.174C102.743 81.174 102.199 81.366 101.751 81.7501C101.314 82.1234 101.047 82.6247 100.951 83.2541H105.799C105.714 82.6354 105.453 82.134 105.015 81.7501C104.578 81.366 104.034 81.174 103.383 81.174Z" fill="#1A202C"/>
<path d="M76 41.8874C75.7898 43.9711 74.9362 45.9569 73.5391 47.6125C72.142 49.268 70.2591 50.5247 68.1109 51.2356C65.9626 51.9465 63.6378 52.0822 61.4084 51.6268C59.179 51.1714 57.1373 50.1437 55.5222 48.664C53.9071 47.1843 52.7853 45.3138 52.2882 43.2713C51.7911 41.2288 51.9392 39.0989 52.7152 37.1307C53.4912 35.1626 54.8629 33.4376 56.6699 32.1576C58.477 30.8776 60.6445 30.0956 62.9189 29.903C61.5873 31.5535 60.9465 33.587 61.1131 35.6337C61.2797 37.6805 62.2426 39.6044 63.8267 41.0557C65.4108 42.507 67.5108 43.3892 69.7448 43.5418C71.9789 43.6944 74.1985 42.7524 76 41.5324V41.8874Z" stroke="#1A3078" stroke-width="2.5" stroke-linecap="round" stroke-linejoin="round"/>
</svg>
