<svg width="128" height="118" viewBox="0 0 128 118" fill="none" xmlns="http://www.w3.org/2000/svg">
<rect y="0.585815" width="128" height="117.269" rx="24" fill="#F6F7FB"/>
<path d="M39.1344 88.3741C37.9931 88.3741 36.9638 88.1287 36.0464 87.6381C35.1291 87.1367 34.4091 86.4487 33.8864 85.5741C33.3638 84.6887 33.1024 83.7021 33.1024 82.614C33.1024 81.526 33.3638 80.5447 33.8864 79.67C34.4091 78.7847 35.1291 78.0967 36.0464 77.606C36.9638 77.1047 37.9931 76.854 39.1344 76.854C40.2758 76.854 41.3051 77.1047 42.2224 77.606C43.1398 78.0967 43.8598 78.7794 44.3824 79.654C44.9051 80.5287 45.1664 81.5154 45.1664 82.614C45.1664 83.7127 44.9051 84.6994 44.3824 85.5741C43.8598 86.4487 43.1398 87.1367 42.2224 87.6381C41.3051 88.1287 40.2758 88.3741 39.1344 88.3741ZM39.1344 86.5501C39.8811 86.5501 40.5531 86.3847 41.1504 86.0541C41.7478 85.7127 42.2171 85.2434 42.5584 84.6461C42.8998 84.0381 43.0704 83.3607 43.0704 82.614C43.0704 81.8674 42.8998 81.1954 42.5584 80.5981C42.2171 79.99 41.7478 79.5207 41.1504 79.1901C40.5531 78.8487 39.8811 78.6781 39.1344 78.6781C38.3878 78.6781 37.7158 78.8487 37.1184 79.1901C36.5211 79.5207 36.0518 79.99 35.7104 80.5981C35.3691 81.1954 35.1984 81.8674 35.1984 82.614C35.1984 83.3607 35.3691 84.0381 35.7104 84.6461C36.0518 85.2434 36.5211 85.7127 37.1184 86.0541C37.7158 86.3847 38.3878 86.5501 39.1344 86.5501ZM52.0272 79.574C53.1045 79.574 53.9685 79.8887 54.6192 80.518C55.2699 81.1474 55.5952 82.0807 55.5952 83.318V88.2141H53.5952V83.574C53.5952 82.8274 53.4192 82.2674 53.0672 81.8941C52.7152 81.51 52.2139 81.318 51.5632 81.318C50.8272 81.318 50.2459 81.542 49.8192 81.99C49.3925 82.4274 49.1792 83.0621 49.1792 83.8941V88.2141H47.1792V79.67H49.0832V80.774C49.4139 80.3794 49.8299 80.0807 50.3312 79.878C50.8325 79.6754 51.3979 79.574 52.0272 79.574ZM66.2182 88.3741C65.3542 88.3741 64.5169 88.2514 63.7062 88.0061C62.9062 87.7607 62.2715 87.4354 61.8022 87.0301L62.5222 85.4141C62.9809 85.7767 63.5409 86.0754 64.2022 86.3101C64.8742 86.5341 65.5462 86.6461 66.2182 86.6461C67.0502 86.6461 67.6689 86.5127 68.0742 86.2461C68.4902 85.9794 68.6982 85.6274 68.6982 85.1901C68.6982 84.8701 68.5809 84.6087 68.3462 84.4061C68.1222 84.1927 67.8342 84.0274 67.4822 83.91C67.1302 83.7927 66.6502 83.6594 66.0422 83.5101C65.1889 83.3074 64.4955 83.1047 63.9622 82.9021C63.4395 82.6994 62.9862 82.3847 62.6022 81.958C62.2289 81.5207 62.0422 80.934 62.0422 80.198C62.0422 79.5794 62.2075 79.0194 62.5382 78.5181C62.8795 78.006 63.3862 77.6007 64.0582 77.302C64.7409 77.0034 65.5729 76.854 66.5542 76.854C67.2369 76.854 67.9089 76.9394 68.5702 77.1101C69.2315 77.2807 69.8022 77.526 70.2822 77.8461L69.6262 79.462C69.1355 79.1741 68.6235 78.9554 68.0902 78.8061C67.5569 78.6567 67.0395 78.582 66.5382 78.582C65.7169 78.582 65.1035 78.7207 64.6982 78.998C64.3035 79.2754 64.1062 79.6434 64.1062 80.102C64.1062 80.422 64.2182 80.6834 64.4422 80.886C64.6769 81.0887 64.9702 81.2487 65.3222 81.366C65.6742 81.4834 66.1542 81.6167 66.7622 81.766C67.5942 81.958 68.2769 82.1607 68.8102 82.3741C69.3435 82.5767 69.7969 82.8914 70.1702 83.318C70.5542 83.7447 70.7462 84.3207 70.7462 85.0461C70.7462 85.6647 70.5755 86.2247 70.2342 86.7261C69.9035 87.2274 69.3969 87.6274 68.7142 87.9261C68.0315 88.2247 67.1995 88.3741 66.2182 88.3741ZM75.8807 79.574C77.1394 79.574 78.0994 79.8781 78.7607 80.4861C79.4327 81.0834 79.7687 81.99 79.7687 83.206V88.2141H77.8807V87.1741C77.6354 87.5474 77.2834 87.8354 76.8247 88.0381C76.3767 88.2301 75.8327 88.3261 75.1927 88.3261C74.5527 88.3261 73.9927 88.2194 73.5127 88.0061C73.0327 87.7821 72.6594 87.4781 72.3927 87.0941C72.1367 86.6994 72.0087 86.2567 72.0087 85.7661C72.0087 84.9981 72.2914 84.3847 72.8567 83.9261C73.4327 83.4567 74.334 83.2221 75.5607 83.2221H77.7687V83.094C77.7687 82.4967 77.5874 82.0381 77.2247 81.7181C76.8727 81.398 76.3447 81.238 75.6407 81.238C75.1607 81.238 74.686 81.3127 74.2167 81.462C73.758 81.6114 73.3687 81.8194 73.0487 82.0861L72.2647 80.63C72.7127 80.2887 73.2514 80.0274 73.8807 79.8461C74.51 79.6647 75.1767 79.574 75.8807 79.574ZM75.6087 86.8701C76.11 86.8701 76.5527 86.7581 76.9367 86.5341C77.3314 86.2994 77.6087 85.9687 77.7687 85.5421V84.5501H75.7047C74.5527 84.5501 73.9767 84.9287 73.9767 85.6861C73.9767 86.0487 74.1207 86.3367 74.4087 86.5501C74.6967 86.7634 75.0967 86.8701 75.6087 86.8701ZM82.3354 76.342H84.3354V88.2141H82.3354V76.342ZM94.9924 83.9901C94.9924 84.1287 94.9818 84.3261 94.9604 84.5821H88.2564C88.3738 85.2114 88.6778 85.7127 89.1684 86.0861C89.6698 86.4487 90.2884 86.6301 91.0244 86.6301C91.9631 86.6301 92.7364 86.3207 93.3444 85.7021L94.4164 86.9341C94.0324 87.3927 93.5471 87.7394 92.9604 87.9741C92.3738 88.2087 91.7124 88.3261 90.9764 88.3261C90.0378 88.3261 89.2111 88.1394 88.4964 87.7661C87.7818 87.3927 87.2271 86.8754 86.8324 86.2141C86.4484 85.5421 86.2564 84.7847 86.2564 83.942C86.2564 83.11 86.4431 82.3634 86.8164 81.7021C87.2004 81.03 87.7284 80.5074 88.4004 80.1341C89.0724 79.7607 89.8298 79.574 90.6724 79.574C91.5044 79.574 92.2458 79.7607 92.8964 80.1341C93.5578 80.4967 94.0698 81.0141 94.4324 81.686C94.8058 82.3474 94.9924 83.1154 94.9924 83.9901ZM90.6724 81.174C90.0324 81.174 89.4884 81.366 89.0404 81.7501C88.6031 82.1234 88.3364 82.6247 88.2404 83.2541H93.0884C93.0031 82.6354 92.7418 82.134 92.3044 81.7501C91.8671 81.366 91.3231 81.174 90.6724 81.174Z" fill="#1A202C"/>
<path d="M56.1667 28.0707L52 33.2012V51.1579C52 51.8383 52.2927 52.4908 52.8136 52.9718C53.3345 53.4529 54.0411 53.7232 54.7778 53.7232H74.2222C74.9589 53.7232 75.6655 53.4529 76.1864 52.9718C76.7073 52.4908 77 51.8383 77 51.1579V33.2012L72.8333 28.0707H56.1667Z" stroke="#1A3078" stroke-width="2.5" stroke-linecap="round" stroke-linejoin="round"/>
<path d="M52 33.2012H77" stroke="#1A3078" stroke-width="2.5" stroke-linecap="round" stroke-linejoin="round"/>
<path d="M70.0554 38.3315C70.0554 39.6922 69.4701 40.9972 68.4283 41.9594C67.3864 42.9215 65.9733 43.462 64.4999 43.462C63.0265 43.462 61.6134 42.9215 60.5715 41.9594C59.5297 40.9972 58.9443 39.6922 58.9443 38.3315" stroke="#1A3078" stroke-width="2.5" stroke-linecap="round" stroke-linejoin="round"/>
</svg>
