<svg width="43" height="43" viewBox="0 0 43 43" fill="none" xmlns="http://www.w3.org/2000/svg">
<path d="M42.88 21.44C42.88 9.599 33.281 0 21.44 0C9.599 0 0 9.599 0 21.44C0 26.826 2.001 31.735 5.28 35.501V19.897H12.698V29.848H21.579V19.897H28.997V41.484C37.104 38.425 42.88 30.617 42.88 21.44Z" fill="#1A3078"/>
<path d="M12.698 35.589V41.004C15.37 42.2 18.323 42.88 21.44 42.88C21.487 42.88 21.533 42.873 21.58 42.873V35.589H12.698Z" fill="#1A3078"/>
<path d="M21.58 19.897V29.848H12.699V19.897H5.28003V35.501C7.31303 37.835 9.83603 39.723 12.698 41.004V35.589H21.579V42.873C24.192 42.856 26.685 42.356 28.997 41.484V19.897H21.58Z" fill="white"/>
</svg>
